<svg xmlns="http://www.w3.org/2000/svg" width="612.28" height="221.11" xmlns:xlink="http://www.w3.org/1999/xlink" viewBox="0 0 612.28 221.11" transform="rotate(-90)"><defs><style>.cls-1{fill:url(#Unnamed_Pattern);mix-blend-mode:color-dodge;}.cls-1,.cls-2,.cls-3,.cls-4,.cls-5,.cls-6,.cls-7,.cls-8,.cls-9,.cls-10,.cls-11,.cls-12,.cls-13,.cls-14,.cls-15,.cls-16,.cls-17,.cls-18,.cls-19,.cls-20,.cls-21{opacity:.8;}.cls-22{fill:none;}.cls-23{fill:url(#linear-gradient-8);}.cls-24{fill:url(#linear-gradient-7);}.cls-25{fill:url(#linear-gradient-5);}.cls-26{fill:url(#linear-gradient-6);}.cls-27{fill:url(#linear-gradient-4);}.cls-28{fill:url(#linear-gradient-3);}.cls-29{fill:url(#linear-gradient-2);}.cls-30{fill:url(#linear-gradient);}.cls-2{fill:url(#radial-gradient-24);}.cls-2,.cls-3,.cls-4,.cls-5,.cls-6,.cls-7,.cls-8,.cls-9,.cls-10,.cls-11,.cls-12,.cls-13,.cls-14,.cls-15,.cls-16,.cls-17,.cls-18,.cls-31,.cls-32,.cls-33,.cls-34,.cls-35,.cls-36,.cls-37,.cls-38,.cls-39,.cls-40,.cls-41,.cls-42,.cls-43,.cls-44,.cls-45,.cls-46,.cls-47,.cls-48,.cls-49,.cls-50,.cls-51,.cls-52,.cls-53,.cls-54,.cls-55,.cls-56,.cls-57,.cls-58,.cls-59,.cls-60,.cls-61,.cls-62,.cls-63,.cls-64,.cls-65,.cls-19,.cls-20,.cls-21{mix-blend-mode:screen;}.cls-3{fill:url(#radial-gradient-20);}.cls-4{fill:url(#radial-gradient-23);}.cls-5{fill:url(#radial-gradient-53);}.cls-6{fill:url(#radial-gradient-54);}.cls-7{fill:url(#radial-gradient-34);}.cls-8{fill:url(#radial-gradient-35);}.cls-9{fill:url(#radial-gradient-36);}.cls-10{fill:url(#radial-gradient-46);}.cls-11{fill:url(#radial-gradient-43);}.cls-12{fill:url(#radial-gradient-49);}.cls-13{fill:url(#radial-gradient-44);}.cls-14{fill:url(#radial-gradient-14);}.cls-15{fill:url(#radial-gradient-16);}.cls-16{fill:url(#radial-gradient-15);}.cls-17{fill:url(#radial-gradient-18);}.cls-18{fill:url(#radial-gradient-47);}.cls-31{fill:url(#radial-gradient-13);}.cls-31,.cls-32,.cls-33,.cls-34,.cls-35,.cls-36,.cls-37,.cls-38,.cls-39,.cls-40,.cls-41,.cls-42,.cls-43,.cls-44,.cls-45,.cls-46,.cls-47,.cls-48,.cls-49,.cls-50,.cls-51,.cls-52,.cls-53,.cls-54,.cls-55,.cls-56,.cls-57,.cls-58,.cls-59,.cls-60,.cls-61,.cls-62,.cls-63,.cls-64,.cls-65{opacity:.5;}.cls-32{fill:url(#radial-gradient-12);}.cls-33{fill:url(#radial-gradient-17);}.cls-34{fill:url(#radial-gradient-19);}.cls-35{fill:url(#radial-gradient-10);}.cls-36{fill:url(#radial-gradient-11);}.cls-37{fill:url(#radial-gradient-48);}.cls-38{fill:url(#radial-gradient-30);}.cls-39{fill:url(#radial-gradient-31);}.cls-40{fill:url(#radial-gradient-32);}.cls-41{fill:url(#radial-gradient-42);}.cls-42{fill:url(#radial-gradient-50);}.cls-43{fill:url(#radial-gradient-55);}.cls-44{fill:url(#radial-gradient-40);}.cls-45{fill:url(#radial-gradient-41);}.cls-46{fill:url(#radial-gradient-45);}.cls-47{fill:url(#radial-gradient-26);}.cls-48{fill:url(#radial-gradient-29);}.cls-49{fill:url(#radial-gradient-27);}.cls-50{fill:url(#radial-gradient-22);}.cls-51{fill:url(#radial-gradient-28);}.cls-52{fill:url(#radial-gradient-37);}.cls-53{fill:url(#radial-gradient-38);}.cls-54{fill:url(#radial-gradient-33);}.cls-55{fill:url(#radial-gradient-39);}.cls-56{fill:url(#radial-gradient-25);}.cls-57{fill:url(#radial-gradient-52);}.cls-58{fill:url(#radial-gradient-51);}.cls-59{fill:url(#radial-gradient-21);}.cls-60{fill:url(#radial-gradient);}.cls-66{isolation:isolate;}.cls-61{fill:url(#radial-gradient-5);}.cls-62{fill:url(#radial-gradient-7);}.cls-63{fill:url(#radial-gradient-8);}.cls-64{fill:url(#radial-gradient-2);}.cls-65{fill:url(#radial-gradient-9);}.cls-19{fill:url(#radial-gradient-4);}.cls-20{fill:url(#radial-gradient-3);}.cls-21{fill:url(#radial-gradient-6);}</style><linearGradient id="linear-gradient" x1="-47.63" y1="166.73" x2="99.3" y2="-6.56" gradientUnits="userSpaceOnUse"><stop offset="0" stop-color="#000"></stop><stop offset=".63" stop-color="#2b2b2c"></stop><stop offset="1" stop-color="#414042"></stop></linearGradient><linearGradient id="linear-gradient-2" x1="102.03" y1="71.67" x2="287.33" y2="-146.89" xlink:href="#linear-gradient"></linearGradient><radialGradient id="radial-gradient" cx="-9505.58" cy="4653.26" fx="-9505.58" fy="4653.26" r="5.5" gradientTransform="translate(7213.95 -7830.77) rotate(-74.25) scale(1 -1)" gradientUnits="userSpaceOnUse"><stop offset="0" stop-color="#fff"></stop><stop offset="0" stop-color="#f5f5f5" stop-opacity=".96"></stop><stop offset=".05" stop-color="#c7c7c7" stop-opacity=".78"></stop><stop offset=".09" stop-color="#9c9c9c" stop-opacity=".61"></stop><stop offset=".14" stop-color="#777" stop-opacity=".47"></stop><stop offset=".2" stop-color="#565656" stop-opacity=".34"></stop><stop offset=".25" stop-color="#3b3b3b" stop-opacity=".23"></stop><stop offset=".32" stop-color="#252525" stop-opacity=".15"></stop><stop offset=".4" stop-color="#141414" stop-opacity=".08"></stop><stop offset=".49" stop-color="#080808" stop-opacity=".03"></stop><stop offset=".63" stop-color="#010101" stop-opacity="0"></stop><stop offset="1" stop-color="#000" stop-opacity="0"></stop></radialGradient><radialGradient id="radial-gradient-2" cx="-9537.35" cy="4660.37" fx="-9537.35" fy="4660.37" r="5.5" xlink:href="#radial-gradient"></radialGradient><radialGradient id="radial-gradient-3" cx="-9511.39" cy="4627.94" fx="-9511.39" fy="4627.94" r="16.17" gradientTransform="translate(10523.71 2272.76) rotate(-13.92) scale(1 -1)" xlink:href="#radial-gradient"></radialGradient><radialGradient id="radial-gradient-4" cx="-9548.18" cy="4623.84" fx="-9548.18" fy="4623.84" r="9.97" xlink:href="#radial-gradient"></radialGradient><radialGradient id="radial-gradient-5" cx="-8656.95" cy="-22155.31" fx="-8656.95" fy="-22155.31" r="3.16" gradientTransform="translate(8823.86 -22072.45) scale(1 -1)" xlink:href="#radial-gradient"></radialGradient><radialGradient id="radial-gradient-6" cx="-8678.46" cy="-22174.81" fx="-8678.46" fy="-22174.81" r="8.03" gradientTransform="translate(13702.4 -19474.3) rotate(13.33) scale(1 -1)" xlink:href="#radial-gradient"></radialGradient><radialGradient id="radial-gradient-7" cx="-9577.74" cy="4724.84" fx="-9577.74" fy="4724.84" r="5.5" xlink:href="#radial-gradient"></radialGradient><radialGradient id="radial-gradient-8" cx="-9561.16" cy="4679.7" fx="-9561.16" fy="4679.7" r="5.5" xlink:href="#radial-gradient"></radialGradient><radialGradient id="radial-gradient-9" cx="-9583.11" cy="4784.45" fx="-9583.11" fy="4784.45" r="5.5" xlink:href="#radial-gradient"></radialGradient><radialGradient id="radial-gradient-10" cx="-9573.34" cy="4758.47" fx="-9573.34" fy="4758.47" r="5.5" xlink:href="#radial-gradient"></radialGradient><radialGradient id="radial-gradient-11" cx="-9575.6" cy="4739.97" fx="-9575.6" fy="4739.97" r="5.5" xlink:href="#radial-gradient"></radialGradient><radialGradient id="radial-gradient-12" cx="-9563.06" cy="4722.01" fx="-9563.06" fy="4722.01" r="5.5" xlink:href="#radial-gradient"></radialGradient><radialGradient id="radial-gradient-13" cx="-9537.02" cy="4778.43" fx="-9537.02" fy="4778.43" r="5.5" xlink:href="#radial-gradient"></radialGradient><radialGradient id="radial-gradient-14" cx="-9559.41" cy="4798.24" fx="-9559.41" fy="4798.24" r="16.17" xlink:href="#radial-gradient"></radialGradient><radialGradient id="radial-gradient-15" cx="-9549.45" cy="4781.28" fx="-9549.45" fy="4781.28" r="9.97" xlink:href="#radial-gradient"></radialGradient><radialGradient id="radial-gradient-16" cx="-9596.2" cy="4794.14" fx="-9596.2" fy="4794.14" r="9.97" xlink:href="#radial-gradient"></radialGradient><radialGradient id="radial-gradient-17" cx="-8803" cy="-22153.39" fx="-8803" fy="-22153.39" r="3.16" gradientTransform="translate(8823.86 -22072.45) scale(1 -1)" xlink:href="#radial-gradient"></radialGradient><radialGradient id="radial-gradient-18" cx="-8788.81" cy="-22187.95" fx="-8788.81" fy="-22187.95" r="16.17" gradientTransform="translate(8823.86 -22072.45) scale(1 -1)" xlink:href="#radial-gradient"></radialGradient><radialGradient id="radial-gradient-19" cx="-9490.28" cy="4647.22" fx="-9490.28" fy="4647.22" r="5.5" xlink:href="#radial-gradient"></radialGradient><radialGradient id="radial-gradient-20" cx="-9451.87" cy="4650.99" fx="-9451.87" fy="4650.99" r="9.97" xlink:href="#radial-gradient"></radialGradient><radialGradient id="radial-gradient-21" cx="-8702.16" cy="-22088.53" fx="-8702.16" fy="-22088.53" r="3.16" gradientTransform="translate(8823.86 -22072.45) scale(1 -1)" xlink:href="#radial-gradient"></radialGradient><radialGradient id="radial-gradient-22" cx="-8683.96" cy="-22104.85" fx="-8683.96" fy="-22104.85" r="3.16" gradientTransform="translate(8823.86 -22072.45) scale(1 -1)" xlink:href="#radial-gradient"></radialGradient><radialGradient id="radial-gradient-23" cx="-8678.46" cy="-22074.74" fx="-8678.46" fy="-22074.74" r="8.03" gradientTransform="translate(8823.86 -22072.45) scale(1 -1)" xlink:href="#radial-gradient"></radialGradient><radialGradient id="radial-gradient-24" cx="-8668.49" cy="-22091.71" fx="-8668.49" fy="-22091.71" r="9.97" gradientTransform="translate(8823.86 -22072.45) scale(1 -1)" xlink:href="#radial-gradient"></radialGradient><radialGradient id="radial-gradient-25" cx="-8635.56" cy="-22101.68" fx="-8635.56" fy="-22101.68" r="16.17" gradientTransform="translate(8823.86 -22072.45) scale(1 -1)" xlink:href="#radial-gradient"></radialGradient><radialGradient id="radial-gradient-26" cx="-9510.94" cy="4712.88" fx="-9510.94" fy="4712.88" r="5.5" xlink:href="#radial-gradient"></radialGradient><radialGradient id="radial-gradient-27" cx="-9481.44" cy="4752" fx="-9481.44" fy="4752" r="5.5" xlink:href="#radial-gradient"></radialGradient><radialGradient id="radial-gradient-28" cx="-9513.2" cy="4759.11" fx="-9513.2" fy="4759.11" r="5.5" xlink:href="#radial-gradient"></radialGradient><radialGradient id="radial-gradient-29" cx="-9501.18" cy="4686.89" fx="-9501.18" fy="4686.89" r="5.5" xlink:href="#radial-gradient"></radialGradient><radialGradient id="radial-gradient-30" cx="-9503.44" cy="4668.4" fx="-9503.44" fy="4668.4" r="5.5" xlink:href="#radial-gradient"></radialGradient><radialGradient id="radial-gradient-31" cx="-9490.9" cy="4650.44" fx="-9490.9" fy="4650.44" r="5.5" xlink:href="#radial-gradient"></radialGradient><radialGradient id="radial-gradient-32" cx="-9464.85" cy="4706.85" fx="-9464.85" fy="4706.85" r="5.5" xlink:href="#radial-gradient"></radialGradient><radialGradient id="radial-gradient-33" cx="-9562.44" cy="4718.8" fx="-9562.44" fy="4718.8" r="5.5" xlink:href="#radial-gradient"></radialGradient><radialGradient id="radial-gradient-34" cx="-9487.25" cy="4726.67" fx="-9487.25" fy="4726.67" r="16.17" gradientTransform="translate(10679.76 -437.04) rotate(-28.94) scale(1 -1)" xlink:href="#radial-gradient"></radialGradient><radialGradient id="radial-gradient-35" cx="-9477.28" cy="4709.7" fx="-9477.28" fy="4709.7" r="9.97" xlink:href="#radial-gradient"></radialGradient><radialGradient id="radial-gradient-36" cx="-9524.03" cy="4722.57" fx="-9524.03" fy="4722.57" r="9.97" xlink:href="#radial-gradient"></radialGradient><radialGradient id="radial-gradient-37" cx="-8790.63" cy="-22138.57" fx="-8790.63" fy="-22138.57" r="3.16" gradientTransform="translate(8823.86 -22072.45) scale(1 -1)" xlink:href="#radial-gradient"></radialGradient><radialGradient id="radial-gradient-38" cx="-8727.33" cy="-22132.81" fx="-8727.33" fy="-22132.81" r="3.16" gradientTransform="translate(8823.86 -22072.45) scale(1 -1)" xlink:href="#radial-gradient"></radialGradient><radialGradient id="radial-gradient-39" cx="-8714.52" cy="-22103.36" fx="-8714.52" fy="-22103.36" r="3.16" gradientTransform="translate(8823.86 -22072.45) scale(1 -1)" xlink:href="#radial-gradient"></radialGradient><radialGradient id="radial-gradient-40" cx="-8745.43" cy="-22105.27" fx="-8745.43" fy="-22105.27" r="3.16" gradientTransform="translate(8823.86 -22072.45) scale(1 -1)" xlink:href="#radial-gradient"></radialGradient><radialGradient id="radial-gradient-41" cx="-8709.02" cy="-22175.86" fx="-8709.02" fy="-22175.86" r="3.16" gradientTransform="translate(8823.86 -22072.45) scale(1 -1)" xlink:href="#radial-gradient"></radialGradient><radialGradient id="radial-gradient-42" cx="-8772.44" cy="-22154.89" fx="-8772.44" fy="-22154.89" r="3.16" gradientTransform="translate(8823.86 -22072.45) scale(1 -1)" xlink:href="#radial-gradient"></radialGradient><radialGradient id="radial-gradient-43" cx="-8766.94" cy="-22124.77" fx="-8766.94" fy="-22124.77" r="8.03" gradientTransform="translate(21900.66 -9393.1) rotate(45) scale(1 -1)" xlink:href="#radial-gradient"></radialGradient><radialGradient id="radial-gradient-44" cx="-8756.97" cy="-22141.74" fx="-8756.97" fy="-22141.74" r="9.97" gradientTransform="translate(8823.86 -22072.45) scale(1 -1)" xlink:href="#radial-gradient"></radialGradient><radialGradient id="radial-gradient-45" cx="-8724.03" cy="-22151.71" fx="-8724.03" fy="-22151.71" r="16.17" gradientTransform="translate(13507.54 -19594.08) rotate(12.78) scale(1 -1)" xlink:href="#radial-gradient"></radialGradient><radialGradient id="radial-gradient-46" cx="-8700.34" cy="-22137.92" fx="-8700.34" fy="-22137.92" r="16.17" gradientTransform="translate(8823.86 -22072.45) scale(1 -1)" xlink:href="#radial-gradient"></radialGradient><radialGradient id="radial-gradient-47" cx="-8690.37" cy="-22154.89" fx="-8690.37" fy="-22154.89" r="9.97" gradientTransform="translate(22453.52 -8174.56) rotate(48.28) scale(1 -1)" xlink:href="#radial-gradient"></radialGradient><radialGradient id="radial-gradient-48" cx="-9479.3" cy="4767.13" fx="-9479.3" fy="4767.13" r="5.5" xlink:href="#radial-gradient"></radialGradient><radialGradient id="radial-gradient-49" cx="-9499.89" cy="4821.3" fx="-9499.89" fy="4821.3" r="9.97" xlink:href="#radial-gradient"></radialGradient><radialGradient id="radial-gradient-50" cx="-8815.81" cy="-22082.77" fx="-8815.81" fy="-22082.77" r="3.16" gradientTransform="translate(8823.86 -22072.45) scale(1 -1)" xlink:href="#radial-gradient"></radialGradient><radialGradient id="radial-gradient-51" cx="-8797.5" cy="-22125.82" fx="-8797.5" fy="-22125.82" r="3.16" gradientTransform="translate(8823.86 -22072.45) scale(1 -1)" xlink:href="#radial-gradient"></radialGradient><radialGradient id="radial-gradient-52" cx="-8812.51" cy="-22101.68" fx="-8812.51" fy="-22101.68" r="16.17" gradientTransform="translate(8823.86 -22072.45) scale(1 -1)" xlink:href="#radial-gradient"></radialGradient><radialGradient id="radial-gradient-53" cx="-8788.81" cy="-22087.89" fx="-8788.81" fy="-22087.89" r="16.17" gradientTransform="translate(21868.17 -9388.43) rotate(45) scale(1 -1)" xlink:href="#radial-gradient"></radialGradient><radialGradient id="radial-gradient-54" cx="-8778.85" cy="-22104.85" fx="-8778.85" fy="-22104.85" r="9.97" gradientTransform="translate(8823.86 -22072.45) scale(1 -1)" xlink:href="#radial-gradient"></radialGradient><radialGradient id="radial-gradient-55" cx="-8709.02" cy="-22075.79" fx="-8709.02" fy="-22075.79" r="3.16" gradientTransform="translate(8823.86 -22072.45) scale(1 -1)" xlink:href="#radial-gradient"></radialGradient><pattern id="Unnamed_Pattern" x="0" y="0" width="176.95" height="100.07" patternTransform="translate(-440.39 -177.03)" patternUnits="userSpaceOnUse" viewBox="0 0 176.95 100.07"><rect class="cls-22" x="0" y="0" width="176.95" height="100.07"></rect><path class="cls-60" d="M156.86,50.17c2.92.82,4.62,3.86,3.8,6.78-.82,2.92-3.86,4.62-6.78,3.8s-4.62-3.86-3.8-6.78,3.86-4.62,6.78-3.8Z"></path><path class="cls-64" d="M141.39,78.81c2.92.82,4.62,3.86,3.8,6.78-.82,2.92-3.86,4.62-6.78,3.8s-4.62-3.86-3.8-6.78c.82-2.92,3.86-4.62,6.78-3.8Z"></path><circle class="cls-20" cx="178.16" cy="67.93" r="16.17" transform="translate(30.97 189.13) rotate(-60.34)"></circle><path class="cls-19" d="M174.83,94.85c5.3,1.49,8.38,7,6.89,12.3-1.49,5.3-7,8.38-12.3,6.89-5.3-1.49-8.38-7-6.89-12.3,1.49-5.3,7-8.38,12.3-6.89Z"></path><path class="cls-61" d="M170.07,82.85c0,1.75-1.42,3.16-3.16,3.16s-3.16-1.42-3.16-3.16,1.42-3.16,3.16-3.16,3.16,1.42,3.16,3.16Z"></path><circle class="cls-21" cx="145.4" cy="102.35" r="8.03" transform="translate(-19.68 36.28) rotate(-13.33)"></circle><path class="cls-62" d="M68.38,100.2c2.92.82,4.62,3.86,3.8,6.78-.82,2.92-3.86,4.62-6.78,3.8s-4.62-3.86-3.8-6.78c.82-2.92,3.86-4.62,6.78-3.8Z"></path><path class="cls-63" d="M116.33,96.49c2.92.82,4.62,3.86,3.8,6.78-.82,2.92-3.86,4.62-6.78,3.8s-4.62-3.86-3.8-6.78c.82-2.92,3.86-4.62,6.78-3.8Z"></path><path class="cls-65" d="M9.54,89.18c2.92.82,4.62,3.86,3.8,6.78-.82,2.92-3.86,4.62-6.78,3.8-2.92-.82-4.62-3.86-3.8-6.78s3.86-4.62,6.78-3.8Z"></path><path class="cls-35" d="M37.21,86.84c2.92.82,4.62,3.86,3.8,6.78-.82,2.92-3.86,4.62-6.78,3.8-2.92-.82-4.62-3.86-3.8-6.78.82-2.92,3.86-4.62,6.78-3.8Z"></path><path class="cls-36" d="M54.4,94.03c2.92.82,4.62,3.86,3.8,6.78-.82,2.92-3.86,4.62-6.78,3.8s-4.62-3.86-3.8-6.78c.82-2.92,3.86-4.62,6.78-3.8Z"></path><path class="cls-32" d="M75.08,86.84c2.92.82,4.62,3.86,3.8,6.78s-3.86,4.62-6.78,3.8c-2.92-.82-4.62-3.86-3.8-6.78.82-2.92,3.86-4.62,6.78-3.8Z"></path><path class="cls-31" d="M27.85,46.46c2.92.82,4.62,3.86,3.8,6.78-.82,2.92-3.86,4.62-6.78,3.8s-4.62-3.86-3.8-6.78,3.86-4.62,6.78-3.8Z"></path><circle class="cls-14" cx="1.21" cy="67.93" r="16.17"></circle><path class="cls-16" d="M22.95,53.34c5.3,1.49,8.38,7,6.89,12.3-1.49,5.3-7,8.38-12.3,6.89-5.3-1.49-8.38-7-6.89-12.3,1.49-5.3,7-8.38,12.3-6.89Z"></path><path class="cls-15" d="M-2.12,94.85c5.3,1.49,8.38,7,6.89,12.3-1.49,5.3-7,8.38-12.3,6.89-5.3-1.49-8.38-7-6.89-12.3,1.49-5.3,7-8.38,12.3-6.89Z"></path><path class="cls-33" d="M24.02,80.94c0,1.75-1.42,3.16-3.16,3.16s-3.16-1.42-3.16-3.16,1.42-3.16,3.16-3.16,3.16,1.42,3.16,3.16Z"></path><circle class="cls-17" cx="35.04" cy="115.5" r="16.17"></circle><path class="cls-34" d="M166.82,37.08c2.92.82,4.62,3.86,3.8,6.78-.82,2.92-3.86,4.62-6.78,3.8s-4.62-3.86-3.8-6.78c.82-2.92,3.86-4.62,6.78-3.8Z"></path><path class="cls-3" d="M174.83-5.21c5.3,1.49,8.38,7,6.89,12.3-1.49,5.3-7,8.38-12.3,6.89-5.3-1.49-8.38-7-6.89-12.3,1.49-5.3,7-8.38,12.3-6.89Z"></path><path class="cls-59" d="M124.86,16.08c0,1.75-1.42,3.16-3.16,3.16s-3.16-1.42-3.16-3.16,1.42-3.16,3.16-3.16,3.16,1.42,3.16,3.16Z"></path><path class="cls-50" d="M143.06,32.4c0,1.75-1.42,3.16-3.16,3.16s-3.16-1.42-3.16-3.16,1.42-3.16,3.16-3.16,3.16,1.42,3.16,3.16Z"></path><circle class="cls-4" cx="145.4" cy="2.29" r="8.03"></circle><circle class="cls-2" cx="155.36" cy="19.26" r="9.97"></circle><circle class="cls-56" cx="188.3" cy="29.22" r="16.17"></circle><path class="cls-47" d="M98.02,39.15c2.92.82,4.62,3.86,3.8,6.78-.82,2.92-3.86,4.62-6.78,3.8-2.92-.82-4.62-3.86-3.8-6.78.82-2.92,3.86-4.62,6.78-3.8Z"></path><path class="cls-49" d="M68.38.13c2.92.82,4.62,3.86,3.8,6.78-.82,2.92-3.86,4.62-6.78,3.8s-4.62-3.86-3.8-6.78c.82-2.92,3.86-4.62,6.78-3.8Z"></path><path class="cls-51" d="M52.91,28.78c2.92.82,4.62,3.86,3.8,6.78-.82,2.92-3.86,4.62-6.78,3.8-2.92-.82-4.62-3.86-3.8-6.78.82-2.92,3.86-4.62,6.78-3.8Z"></path><path class="cls-48" d="M125.68,36.8c2.92.82,4.62,3.86,3.8,6.78-.82,2.92-3.86,4.62-6.78,3.8-2.92-.82-4.62-3.86-3.8-6.78.82-2.92,3.86-4.62,6.78-3.8Z"></path><path class="cls-38" d="M142.87,44c2.92.82,4.62,3.86,3.8,6.78s-3.86,4.62-6.78,3.8c-2.92-.82-4.62-3.86-3.8-6.78s3.86-4.62,6.78-3.8Z"></path><path class="cls-39" d="M163.56,36.8c2.92.82,4.62,3.86,3.8,6.78-.82,2.92-3.86,4.62-6.78,3.8-2.92-.82-4.62-3.86-3.8-6.78s3.86-4.62,6.78-3.8Z"></path><path class="cls-40" d="M116.33-3.58c2.92.82,4.62,3.86,3.8,6.78-.82,2.92-3.86,4.62-6.78,3.8s-4.62-3.86-3.8-6.78c.82-2.92,3.86-4.62,6.78-3.8Z"></path><path class="cls-54" d="M78.35,87.11c2.92.82,4.62,3.86,3.8,6.78-.82,2.92-3.86,4.62-6.78,3.8-2.92-.82-4.62-3.86-3.8-6.78s3.86-4.62,6.78-3.8Z"></path><circle class="cls-7" cx="89.69" cy="17.89" r="16.17" transform="translate(13.89 69.07) rotate(-45.31)"></circle><path class="cls-8" d="M111.43,3.31c5.3,1.49,8.38,7,6.89,12.3-1.49,5.3-7,8.38-12.3,6.89-5.3-1.49-8.38-7-6.89-12.3,1.49-5.3,7-8.38,12.3-6.89Z"></path><path class="cls-9" d="M86.36,44.82c5.3,1.49,8.38,7,6.89,12.3-1.49,5.3-7,8.38-12.3,6.89-5.3-1.49-8.38-7-6.89-12.3,1.49-5.3,7-8.38,12.3-6.89Z"></path><circle class="cls-52" cx="33.22" cy="66.11" r="3.16"></circle><path class="cls-53" d="M99.69,60.35c0,1.75-1.42,3.16-3.16,3.16s-3.16-1.42-3.16-3.16,1.42-3.16,3.16-3.16,3.16,1.42,3.16,3.16Z"></path><path class="cls-55" d="M112.5,30.91c0,1.75-1.42,3.16-3.16,3.16s-3.16-1.42-3.16-3.16,1.42-3.16,3.16-3.16,3.16,1.42,3.16,3.16Z"></path><path class="cls-44" d="M81.59,32.82c0,1.75-1.42,3.16-3.16,3.16s-3.16-1.42-3.16-3.16,1.42-3.16,3.16-3.16,3.16,1.42,3.16,3.16Z"></path><path class="cls-45" d="M118,103.4c0,1.75-1.42,3.16-3.16,3.16s-3.16-1.42-3.16-3.16,1.42-3.16,3.16-3.16,3.16,1.42,3.16,3.16Z"></path><path class="cls-41" d="M54.58,82.43c0,1.75-1.42,3.16-3.16,3.16s-3.16-1.42-3.16-3.16,1.42-3.16,3.16-3.16,3.16,1.42,3.16,3.16Z"></path><circle class="cls-11" cx="56.92" cy="52.32" r="8.03" transform="translate(-20.32 55.57) rotate(-45)"></circle><circle class="cls-13" cx="66.89" cy="69.29" r="9.97"></circle><circle class="cls-46" cx="99.82" cy="79.26" r="16.17" transform="translate(-15.06 24.04) rotate(-12.78)"></circle><circle class="cls-10" cx="123.52" cy="65.47" r="16.17"></circle><circle class="cls-18" cx="133.49" cy="82.43" r="9.97" transform="translate(-16.88 127.21) rotate(-48.28)"></circle><path class="cls-37" d="M54.4-6.03c2.92.82,4.62,3.86,3.8,6.78-.82,2.92-3.86,4.62-6.78,3.8s-4.62-3.86-3.8-6.78c.82-2.92,3.86-4.62,6.78-3.8Z"></path><path class="cls-12" d="M-2.12-5.21C3.18-3.72,6.26,1.79,4.77,7.08c-1.49,5.3-7,8.38-12.3,6.89-5.3-1.49-8.38-7-6.89-12.3C-12.92-3.62-7.42-6.71-2.12-5.21Z"></path><path class="cls-42" d="M11.21,10.32c0,1.75-1.42,3.16-3.16,3.16s-3.16-1.42-3.16-3.16,1.42-3.16,3.16-3.16,3.16,1.42,3.16,3.16Z"></path><path class="cls-58" d="M29.52,53.37c0,1.75-1.42,3.16-3.16,3.16s-3.16-1.42-3.16-3.16,1.42-3.16,3.16-3.16,3.16,1.42,3.16,3.16Z"></path><circle class="cls-57" cx="11.35" cy="29.22" r="16.17"></circle><circle class="cls-5" cx="35.04" cy="15.43" r="16.17" transform="translate(-.65 29.3) rotate(-45)"></circle><circle class="cls-6" cx="45.01" cy="32.4" r="9.97"></circle><path class="cls-43" d="M118,3.34c0,1.75-1.42,3.16-3.16,3.16s-3.16-1.42-3.16-3.16,1.42-3.16,3.16-3.16,3.16,1.42,3.16,3.16Z"></path></pattern><linearGradient id="linear-gradient-3" x1="47.41" y1="229.82" x2="377.75" y2="-159.82" xlink:href="#linear-gradient"></linearGradient><linearGradient id="linear-gradient-4" x1="293.34" y1="70.14" x2="489.79" y2="-1.46" xlink:href="#linear-gradient"></linearGradient><linearGradient id="linear-gradient-5" x1="360.4" y1="45.7" x2="701.31" y2="-78.56" xlink:href="#linear-gradient"></linearGradient><linearGradient id="linear-gradient-6" x1="630.68" y1=".08" x2="532.35" y2="72.82" gradientUnits="userSpaceOnUse"><stop offset="0" stop-color="#000"></stop><stop offset=".35" stop-color="#191919"></stop><stop offset=".63" stop-color="#2c2b2c"></stop><stop offset="1" stop-color="#414042"></stop></linearGradient><linearGradient id="linear-gradient-7" x1="616.31" y1="104.88" x2="517.7" y2="-28.95" xlink:href="#linear-gradient"></linearGradient><linearGradient id="linear-gradient-8" x1="492.05" y1="40.04" x2="535.69" y2="113.96" xlink:href="#linear-gradient"></linearGradient></defs><g class="cls-66"><g id="Isolation_Mode"><polygon class="cls-30" points="0 0 91.07 80.03 0 221.11 0 0"></polygon><polygon class="cls-29" points="91.07 80.03 325.59 0 0 0 91.07 80.03"></polygon><polygon class="cls-1" points="91.07 80.03 325.59 0 0 0 91.07 80.03"></polygon><polygon class="cls-28" points="0 221.11 325.59 0 91.07 80.03 0 221.11"></polygon><polygon class="cls-27" points="270.86 37.17 448.72 71.9 325.59 0 270.86 37.17"></polygon><polygon class="cls-25" points="448.72 71.9 612.28 0 325.59 0 448.72 71.9"></polygon><polygon class="cls-1" points="448.72 71.9 612.28 0 325.59 0 448.72 71.9"></polygon><polygon class="cls-26" points="547.31 28.4 539.9 100.59 612.28 0 547.31 28.4"></polygon><polygon class="cls-24" points="539.9 100.59 612.28 80.03 612.28 0 539.9 100.59"></polygon><polygon class="cls-23" points="448.72 71.9 539.9 100.59 547.31 28.4 448.72 71.9"></polygon></g></g></svg>