<?xml version="1.0" encoding="UTF-8"?><svg id="Layer_1" xmlns="http://www.w3.org/2000/svg" width="500" height="500" xmlns:xlink="http://www.w3.org/1999/xlink" viewBox="0 0 500 500"><defs><style>.cls-1{fill:url(#linear-gradient-8);}.cls-2{fill:url(#linear-gradient-7);}.cls-3{fill:url(#linear-gradient-5);}.cls-4{fill:url(#linear-gradient-6);}.cls-5{fill:url(#linear-gradient-9);}.cls-6{fill:url(#linear-gradient-4);}.cls-7{fill:url(#linear-gradient-3);}.cls-8{fill:url(#linear-gradient-2);}.cls-9{fill:url(#linear-gradient);}.cls-10{fill:#a0968a;}.cls-11{fill:url(#linear-gradient-43);}.cls-12{fill:url(#linear-gradient-40);}.cls-13{fill:url(#linear-gradient-41);}.cls-14{fill:url(#linear-gradient-42);}.cls-15{fill:url(#linear-gradient-49);}.cls-16{fill:url(#linear-gradient-48);}.cls-17{fill:url(#linear-gradient-45);}.cls-18{fill:url(#linear-gradient-47);}.cls-19{fill:url(#linear-gradient-44);}.cls-20{fill:url(#linear-gradient-46);}.cls-21{fill:url(#linear-gradient-10);}.cls-22{fill:url(#linear-gradient-11);}.cls-23{fill:url(#linear-gradient-12);}.cls-24{fill:url(#linear-gradient-13);}.cls-25{fill:url(#linear-gradient-19);}.cls-26{fill:url(#linear-gradient-14);}.cls-27{fill:url(#linear-gradient-21);}.cls-28{fill:url(#linear-gradient-20);}.cls-29{fill:url(#linear-gradient-22);}.cls-30{fill:url(#linear-gradient-23);}.cls-31{fill:url(#linear-gradient-28);}.cls-32{fill:url(#linear-gradient-25);}.cls-33{fill:url(#linear-gradient-32);}.cls-34{fill:url(#linear-gradient-31);}.cls-35{fill:url(#linear-gradient-33);}.cls-36{fill:url(#linear-gradient-30);}.cls-37{fill:url(#linear-gradient-15);}.cls-38{fill:url(#linear-gradient-16);}.cls-39{fill:url(#linear-gradient-17);}.cls-40{fill:url(#linear-gradient-18);}.cls-41{fill:url(#linear-gradient-35);}.cls-42{fill:url(#linear-gradient-34);}.cls-43{fill:url(#linear-gradient-36);}.cls-44{fill:url(#linear-gradient-38);}.cls-45{fill:url(#linear-gradient-27);}.cls-46{fill:url(#linear-gradient-24);}.cls-47{fill:url(#linear-gradient-26);}.cls-48{fill:url(#linear-gradient-29);}.cls-49{fill:url(#linear-gradient-37);}.cls-50{fill:url(#linear-gradient-39);}.cls-51{fill:url(#linear-gradient-57);}.cls-52{fill:url(#linear-gradient-58);}.cls-53{fill:url(#linear-gradient-59);}.cls-54{fill:url(#linear-gradient-53);}.cls-55{fill:url(#linear-gradient-54);}.cls-56{fill:url(#linear-gradient-55);}.cls-57{fill:url(#linear-gradient-56);}.cls-58{fill:url(#linear-gradient-50);}.cls-59{fill:url(#linear-gradient-51);}.cls-60{fill:url(#linear-gradient-52);}.cls-61{fill:url(#linear-gradient-67);}.cls-62{fill:url(#linear-gradient-68);}.cls-63{fill:url(#linear-gradient-69);}.cls-64{fill:url(#linear-gradient-63);}.cls-65{fill:url(#linear-gradient-64);}.cls-66{fill:url(#linear-gradient-65);}.cls-67{fill:url(#linear-gradient-66);}.cls-68{fill:url(#linear-gradient-60);}.cls-69{fill:url(#linear-gradient-61);}.cls-70{fill:url(#linear-gradient-62);}.cls-71{fill:url(#linear-gradient-79);}.cls-72{fill:url(#linear-gradient-78);}.cls-73{fill:url(#linear-gradient-75);}.cls-74{fill:url(#linear-gradient-72);}.cls-75{fill:url(#linear-gradient-77);}.cls-76{fill:url(#linear-gradient-74);}.cls-77{fill:url(#linear-gradient-76);}.cls-78{fill:url(#linear-gradient-71);}.cls-79{fill:url(#linear-gradient-73);}.cls-80{fill:url(#linear-gradient-70);}.cls-81{fill:url(#linear-gradient-87);}.cls-82{fill:url(#linear-gradient-88);}.cls-83{fill:url(#linear-gradient-89);}.cls-84{fill:url(#linear-gradient-85);}.cls-85{fill:url(#linear-gradient-83);}.cls-86{fill:url(#linear-gradient-82);}.cls-87{fill:url(#linear-gradient-84);}.cls-88{fill:url(#linear-gradient-86);}.cls-89{fill:url(#linear-gradient-81);}.cls-90{fill:url(#linear-gradient-80);}.cls-91{fill:url(#linear-gradient-99);}.cls-92{fill:url(#linear-gradient-96);}.cls-93{fill:url(#linear-gradient-97);}.cls-94{fill:url(#linear-gradient-98);}.cls-95{fill:url(#linear-gradient-92);}.cls-96{fill:url(#linear-gradient-93);}.cls-97{fill:url(#linear-gradient-94);}.cls-98{fill:url(#linear-gradient-91);}.cls-99{fill:url(#linear-gradient-95);}.cls-100{fill:url(#linear-gradient-90);}.cls-101{fill:url(#linear-gradient-107);}.cls-102{fill:url(#linear-gradient-108);}.cls-103{fill:url(#linear-gradient-109);}.cls-104{fill:url(#linear-gradient-105);}.cls-105{fill:url(#linear-gradient-106);}.cls-106{fill:url(#linear-gradient-104);}.cls-107{fill:url(#linear-gradient-103);}.cls-108{fill:url(#linear-gradient-102);}.cls-109{fill:url(#linear-gradient-101);}.cls-110{fill:url(#linear-gradient-100);}.cls-111{fill:url(#linear-gradient-124);}.cls-112{fill:url(#linear-gradient-125);}.cls-113{fill:url(#linear-gradient-123);}.cls-114{fill:url(#linear-gradient-129);}.cls-115{fill:url(#linear-gradient-122);}.cls-116{fill:url(#linear-gradient-126);}.cls-117{fill:url(#linear-gradient-121);}.cls-118{fill:url(#linear-gradient-120);}.cls-119{fill:url(#linear-gradient-116);}.cls-120{fill:url(#linear-gradient-117);}.cls-121{fill:url(#linear-gradient-115);}.cls-122{fill:url(#linear-gradient-110);}.cls-123{fill:url(#linear-gradient-114);}.cls-124{fill:url(#linear-gradient-113);}.cls-125{fill:url(#linear-gradient-118);}.cls-126{fill:url(#linear-gradient-112);}.cls-127{fill:url(#linear-gradient-111);}.cls-128{fill:url(#linear-gradient-133);}.cls-129{fill:url(#linear-gradient-136);}.cls-130{fill:url(#linear-gradient-135);}.cls-131{fill:url(#linear-gradient-134);}.cls-132{fill:url(#linear-gradient-132);}.cls-133{fill:url(#linear-gradient-131);}.cls-134{fill:url(#linear-gradient-130);}.cls-135{fill:url(#linear-gradient-128);}.cls-136{fill:url(#linear-gradient-127);}.cls-137{fill:url(#linear-gradient-119);}</style><linearGradient id="linear-gradient" x1="389.25" y1="426.81" x2="37.29" y2="288.34" gradientTransform="translate(0 500) scale(1 -1)" gradientUnits="userSpaceOnUse"><stop offset="0" stop-color="#6b6561"/><stop offset=".03" stop-color="#7b7571"/><stop offset=".07" stop-color="#908b87"/><stop offset=".13" stop-color="#a29d98"/><stop offset=".2" stop-color="#aea9a4"/><stop offset=".29" stop-color="#b5b0ac"/><stop offset=".5" stop-color="#b7b3ae"/><stop offset=".6" stop-color="#ada8a3"/><stop offset=".76" stop-color="#928c88"/><stop offset=".98" stop-color="#67605d"/><stop offset="1" stop-color="#635b58"/></linearGradient><linearGradient id="linear-gradient-2" x1="393.97" y1="414.8" x2="42.01" y2="276.33" xlink:href="#linear-gradient"/><linearGradient id="linear-gradient-3" x1="399.37" y1="401.08" x2="47.41" y2="262.61" xlink:href="#linear-gradient"/><linearGradient id="linear-gradient-4" x1="404.02" y1="389.28" x2="52.06" y2="250.8" xlink:href="#linear-gradient"/><linearGradient id="linear-gradient-5" x1="408.58" y1="377.69" x2="56.62" y2="239.22" xlink:href="#linear-gradient"/><linearGradient id="linear-gradient-6" x1="418.39" y1="352.75" x2="66.43" y2="214.27" xlink:href="#linear-gradient"/><linearGradient id="linear-gradient-7" x1="415.98" y1="358.88" x2="64.02" y2="220.41" xlink:href="#linear-gradient"/><linearGradient id="linear-gradient-8" x1="422.26" y1="342.91" x2="70.3" y2="204.43" xlink:href="#linear-gradient"/><linearGradient id="linear-gradient-9" x1="427.54" y1="329.5" x2="75.58" y2="191.02" xlink:href="#linear-gradient"/><linearGradient id="linear-gradient-10" x1="430.68" y1="321.51" x2="78.72" y2="183.04" xlink:href="#linear-gradient"/><linearGradient id="linear-gradient-11" x1="441.47" y1="294.07" x2="89.52" y2="155.59" xlink:href="#linear-gradient"/><linearGradient id="linear-gradient-12" x1="89.2" y1="208.05" x2="89.2" y2="331.44" gradientTransform="translate(0 500) scale(1 -1)" gradientUnits="userSpaceOnUse"><stop offset="0" stop-color="#e7e9eb"/><stop offset=".19" stop-color="#9f9793"/><stop offset=".41" stop-color="#69605b"/><stop offset=".64" stop-color="#634c3e"/><stop offset=".83" stop-color="#a88d79"/><stop offset="1" stop-color="#bebab7"/></linearGradient><linearGradient id="linear-gradient-13" x1="119.21" x2="119.21" y2="331.44" xlink:href="#linear-gradient-12"/><linearGradient id="linear-gradient-14" x1="150.54" x2="150.54" y2="331.44" xlink:href="#linear-gradient-12"/><linearGradient id="linear-gradient-15" x1="187.87" x2="187.87" y2="331.44" xlink:href="#linear-gradient-12"/><linearGradient id="linear-gradient-16" x1="227.29" x2="227.29" xlink:href="#linear-gradient-12"/><linearGradient id="linear-gradient-17" x1="248.79" x2="248.79" y2="331.44" xlink:href="#linear-gradient-12"/><linearGradient id="linear-gradient-18" x1="288.59" x2="288.59" xlink:href="#linear-gradient-12"/><linearGradient id="linear-gradient-19" x1="329.46" x2="329.46" y2="331.44" xlink:href="#linear-gradient-12"/><linearGradient id="linear-gradient-20" x1="369.59" x2="369.59" y2="331.44" xlink:href="#linear-gradient-12"/><linearGradient id="linear-gradient-21" x1="402.36" x2="402.36" y2="331.44" xlink:href="#linear-gradient-12"/><linearGradient id="linear-gradient-22" x1="421.01" x2="421.01" y2="331.44" xlink:href="#linear-gradient-12"/><linearGradient id="linear-gradient-23" x1="421.01" x2="421.01" y2="331.44" xlink:href="#linear-gradient-12"/><linearGradient id="linear-gradient-24" x1="92.38" x2="92.38" y2="331.44" xlink:href="#linear-gradient-12"/><linearGradient id="linear-gradient-25" x1="142.83" y1="208.05" x2="142.83" y2="331.44" xlink:href="#linear-gradient-12"/><linearGradient id="linear-gradient-26" x1="193.85" y1="208.06" x2="193.85" y2="331.45" xlink:href="#linear-gradient-12"/><linearGradient id="linear-gradient-27" x1="233.29" x2="233.29" y2="331.44" xlink:href="#linear-gradient-12"/><linearGradient id="linear-gradient-28" x1="281.6" x2="281.6" y2="331.44" xlink:href="#linear-gradient-12"/><linearGradient id="linear-gradient-29" x1="323.82" x2="323.82" y2="331.44" xlink:href="#linear-gradient-12"/><linearGradient id="linear-gradient-30" x1="354.47" x2="354.47" xlink:href="#linear-gradient-12"/><linearGradient id="linear-gradient-31" x1="382.08" x2="382.08" y2="331.44" xlink:href="#linear-gradient-12"/><linearGradient id="linear-gradient-32" x1="407.03" x2="407.03" y2="331.44" xlink:href="#linear-gradient-12"/><linearGradient id="linear-gradient-33" x1="123.71" y1="183.43" x2="107.6" y2="174.12" xlink:href="#linear-gradient-12"/><linearGradient id="linear-gradient-34" x1="146.34" y1="185.39" x2="127.69" y2="174.64" xlink:href="#linear-gradient-12"/><linearGradient id="linear-gradient-35" x1="179.37" y1="183.63" x2="163.13" y2="174.25" xlink:href="#linear-gradient-12"/><linearGradient id="linear-gradient-36" x1="198.64" y1="181.48" x2="184.49" y2="173.32" xlink:href="#linear-gradient-12"/><linearGradient id="linear-gradient-37" x1="216.72" y1="181.64" x2="206.34" y2="175.65" xlink:href="#linear-gradient-12"/><linearGradient id="linear-gradient-38" x1="239.73" y1="181.48" x2="225.56" y2="173.31" xlink:href="#linear-gradient-12"/><linearGradient id="linear-gradient-39" x1="266.05" y1="183.25" x2="255.65" y2="177.25" xlink:href="#linear-gradient-12"/><linearGradient id="linear-gradient-40" x1="287.68" y1="185.96" x2="267.4" y2="174.25" xlink:href="#linear-gradient-12"/><linearGradient id="linear-gradient-41" x1="327.05" y1="185.81" x2="303.69" y2="172.32" xlink:href="#linear-gradient-12"/><linearGradient id="linear-gradient-42" x1="347.61" y1="181.48" x2="333.46" y2="173.32" xlink:href="#linear-gradient-12"/><linearGradient id="linear-gradient-43" x1="376.39" y1="185.96" x2="356.11" y2="174.25" xlink:href="#linear-gradient-12"/><linearGradient id="linear-gradient-44" x1="387.99" y1="183.25" x2="377.59" y2="177.25" xlink:href="#linear-gradient-12"/><linearGradient id="linear-gradient-45" x1="398.91" y1="181.64" x2="388.54" y2="175.65" xlink:href="#linear-gradient-12"/><linearGradient id="linear-gradient-46" x1="420.93" y1="181.49" x2="406.77" y2="173.31" xlink:href="#linear-gradient-12"/><linearGradient id="linear-gradient-47" x1="350.89" y1="43.58" x2="92.95" y2="192.51" xlink:href="#linear-gradient-12"/><linearGradient id="linear-gradient-48" x1="356.57" y1="53.41" x2="98.63" y2="202.34" xlink:href="#linear-gradient-12"/><linearGradient id="linear-gradient-49" x1="365.01" y1="68.03" x2="107.07" y2="216.96" xlink:href="#linear-gradient-12"/><linearGradient id="linear-gradient-50" x1="369.83" y1="76.37" x2="111.89" y2="225.3" xlink:href="#linear-gradient-12"/><linearGradient id="linear-gradient-51" x1="375" y1="85.33" x2="117.06" y2="234.26" xlink:href="#linear-gradient-12"/><linearGradient id="linear-gradient-52" x1="380.1" y1="94.16" x2="122.16" y2="243.09" xlink:href="#linear-gradient-12"/><linearGradient id="linear-gradient-53" x1="387.56" y1="107.09" x2="129.62" y2="256.02" xlink:href="#linear-gradient-12"/><linearGradient id="linear-gradient-54" x1="391.72" y1="114.28" x2="133.77" y2="263.21" xlink:href="#linear-gradient-12"/><linearGradient id="linear-gradient-55" x1="401.12" y1="130.57" x2="143.18" y2="279.5" xlink:href="#linear-gradient-12"/><linearGradient id="linear-gradient-56" x1="407.07" y1="140.88" x2="149.13" y2="289.81" xlink:href="#linear-gradient-12"/><linearGradient id="linear-gradient-57" x1="413.9" y1="152.69" x2="155.95" y2="301.62" xlink:href="#linear-gradient-12"/><linearGradient id="linear-gradient-58" x1="418.05" y1="159.89" x2="160.11" y2="308.82" xlink:href="#linear-gradient-12"/><linearGradient id="linear-gradient-59" x1="420.55" y1="164.23" x2="162.61" y2="313.16" xlink:href="#linear-gradient-12"/><linearGradient id="linear-gradient-60" x1="425.4" y1="172.63" x2="167.46" y2="321.56" xlink:href="#linear-gradient-12"/><linearGradient id="linear-gradient-61" x1="89.2" y1="169.35" x2="89.2" y2="330.31" gradientTransform="translate(0 500) scale(1 -1)" gradientUnits="userSpaceOnUse"><stop offset="0" stop-color="#504b45"/><stop offset=".02" stop-color="#5a544e"/><stop offset=".09" stop-color="#736c63"/><stop offset=".16" stop-color="#877f74"/><stop offset=".24" stop-color="#958c80"/><stop offset=".34" stop-color="#9d9387"/><stop offset=".52" stop-color="#a0968a"/><stop offset=".65" stop-color="#8e857a"/><stop offset=".91" stop-color="#5f5952"/><stop offset="1" stop-color="#4f4a44"/></linearGradient><linearGradient id="linear-gradient-62" x1="119.21" x2="119.21" y2="330.31" xlink:href="#linear-gradient-61"/><linearGradient id="linear-gradient-63" x1="150.54" x2="150.54" y2="330.31" xlink:href="#linear-gradient-61"/><linearGradient id="linear-gradient-64" x1="187.87" x2="187.87" y2="330.31" xlink:href="#linear-gradient-61"/><linearGradient id="linear-gradient-65" x1="227.29" x2="227.29" y2="330.31" xlink:href="#linear-gradient-61"/><linearGradient id="linear-gradient-66" x1="248.79" x2="248.79" xlink:href="#linear-gradient-61"/><linearGradient id="linear-gradient-67" x1="288.59" x2="288.59" xlink:href="#linear-gradient-61"/><linearGradient id="linear-gradient-68" x1="329.46" x2="329.46" y2="330.31" xlink:href="#linear-gradient-61"/><linearGradient id="linear-gradient-69" x1="369.59" x2="369.59" y2="330.31" xlink:href="#linear-gradient-61"/><linearGradient id="linear-gradient-70" x1="402.36" x2="402.36" xlink:href="#linear-gradient-61"/><linearGradient id="linear-gradient-71" x1="421.01" x2="421.01" xlink:href="#linear-gradient-61"/><linearGradient id="linear-gradient-72" x1="421.01" x2="421.01" y2="330.31" xlink:href="#linear-gradient-61"/><linearGradient id="linear-gradient-73" x1="92.38" x2="92.38" y2="330.31" xlink:href="#linear-gradient-61"/><linearGradient id="linear-gradient-74" x1="142.83" x2="142.83" y2="330.31" xlink:href="#linear-gradient-61"/><linearGradient id="linear-gradient-75" x1="193.85" x2="193.85" xlink:href="#linear-gradient-61"/><linearGradient id="linear-gradient-76" x1="233.29" x2="233.29" y2="330.31" xlink:href="#linear-gradient-61"/><linearGradient id="linear-gradient-77" x1="281.6" x2="281.6" y2="330.31" xlink:href="#linear-gradient-61"/><linearGradient id="linear-gradient-78" x1="323.82" x2="323.82" y2="330.31" xlink:href="#linear-gradient-61"/><linearGradient id="linear-gradient-79" x1="354.47" x2="354.47" y2="330.31" xlink:href="#linear-gradient-61"/><linearGradient id="linear-gradient-80" x1="382.08" x2="382.08" y2="330.31" xlink:href="#linear-gradient-61"/><linearGradient id="linear-gradient-81" x1="407.03" x2="407.03" y2="330.31" xlink:href="#linear-gradient-61"/><linearGradient id="linear-gradient-82" x1="119.21" x2="119.21" y2="330.31" xlink:href="#linear-gradient-61"/><linearGradient id="linear-gradient-83" x1="150.54" x2="150.54" y2="330.31" xlink:href="#linear-gradient-61"/><linearGradient id="linear-gradient-84" x1="187.87" x2="187.87" y2="330.31" xlink:href="#linear-gradient-61"/><linearGradient id="linear-gradient-85" x1="227.29" x2="227.29" y2="330.31" xlink:href="#linear-gradient-61"/><linearGradient id="linear-gradient-86" x1="248.79" x2="248.79" xlink:href="#linear-gradient-61"/><linearGradient id="linear-gradient-87" x1="288.59" x2="288.59" xlink:href="#linear-gradient-61"/><linearGradient id="linear-gradient-88" x1="329.46" x2="329.46" y2="330.31" xlink:href="#linear-gradient-61"/><linearGradient id="linear-gradient-89" x1="369.59" x2="369.59" y2="330.31" xlink:href="#linear-gradient-61"/><linearGradient id="linear-gradient-90" x1="402.36" x2="402.36" xlink:href="#linear-gradient-61"/><linearGradient id="linear-gradient-91" x1="421.01" x2="421.01" xlink:href="#linear-gradient-61"/><linearGradient id="linear-gradient-92" x1="421.01" x2="421.01" y2="330.31" xlink:href="#linear-gradient-61"/><linearGradient id="linear-gradient-93" x1="92.38" x2="92.38" y2="330.31" xlink:href="#linear-gradient-61"/><linearGradient id="linear-gradient-94" x1="142.83" x2="142.83" y2="330.31" xlink:href="#linear-gradient-61"/><linearGradient id="linear-gradient-95" x1="193.85" x2="193.85" xlink:href="#linear-gradient-61"/><linearGradient id="linear-gradient-96" x1="233.29" x2="233.29" y2="330.31" xlink:href="#linear-gradient-61"/><linearGradient id="linear-gradient-97" x1="281.6" x2="281.6" y2="330.31" xlink:href="#linear-gradient-61"/><linearGradient id="linear-gradient-98" x1="323.82" x2="323.82" y2="330.31" xlink:href="#linear-gradient-61"/><linearGradient id="linear-gradient-99" x1="354.47" x2="354.47" y2="330.31" xlink:href="#linear-gradient-61"/><linearGradient id="linear-gradient-100" x1="382.08" x2="382.08" y2="330.31" xlink:href="#linear-gradient-61"/><linearGradient id="linear-gradient-101" x1="407.03" x2="407.03" y2="330.31" xlink:href="#linear-gradient-61"/><linearGradient id="linear-gradient-102" x1="119.21" x2="119.21" y2="330.31" xlink:href="#linear-gradient-61"/><linearGradient id="linear-gradient-103" x1="150.54" x2="150.54" y2="330.31" xlink:href="#linear-gradient-61"/><linearGradient id="linear-gradient-104" x1="187.87" x2="187.87" y2="330.31" xlink:href="#linear-gradient-61"/><linearGradient id="linear-gradient-105" x1="227.29" x2="227.29" y2="330.31" xlink:href="#linear-gradient-61"/><linearGradient id="linear-gradient-106" x1="248.79" x2="248.79" xlink:href="#linear-gradient-61"/><linearGradient id="linear-gradient-107" x1="288.59" x2="288.59" xlink:href="#linear-gradient-61"/><linearGradient id="linear-gradient-108" x1="329.46" x2="329.46" y2="330.31" xlink:href="#linear-gradient-61"/><linearGradient id="linear-gradient-109" x1="369.59" x2="369.59" y2="330.31" xlink:href="#linear-gradient-61"/><linearGradient id="linear-gradient-110" x1="402.36" x2="402.36" xlink:href="#linear-gradient-61"/><linearGradient id="linear-gradient-111" x1="421.01" x2="421.01" xlink:href="#linear-gradient-61"/><linearGradient id="linear-gradient-112" x1="421.01" x2="421.01" y2="330.31" xlink:href="#linear-gradient-61"/><linearGradient id="linear-gradient-113" x1="92.38" x2="92.38" y2="330.31" xlink:href="#linear-gradient-61"/><linearGradient id="linear-gradient-114" x1="142.83" x2="142.83" y2="330.31" xlink:href="#linear-gradient-61"/><linearGradient id="linear-gradient-115" x1="193.85" x2="193.85" xlink:href="#linear-gradient-61"/><linearGradient id="linear-gradient-116" x1="233.29" x2="233.29" y2="330.31" xlink:href="#linear-gradient-61"/><linearGradient id="linear-gradient-117" x1="281.6" x2="281.6" y2="330.31" xlink:href="#linear-gradient-61"/><linearGradient id="linear-gradient-118" x1="323.82" x2="323.82" y2="330.31" xlink:href="#linear-gradient-61"/><linearGradient id="linear-gradient-119" x1="354.47" x2="354.47" y2="330.31" xlink:href="#linear-gradient-61"/><linearGradient id="linear-gradient-120" x1="382.08" x2="382.08" y2="330.31" xlink:href="#linear-gradient-61"/><linearGradient id="linear-gradient-121" x1="407.03" x2="407.03" y2="330.31" xlink:href="#linear-gradient-61"/><linearGradient id="linear-gradient-122" x1="116.17" y1="169.68" x2="116.17" y2="325.72" xlink:href="#linear-gradient-61"/><linearGradient id="linear-gradient-123" x1="137.32" y1="169.68" x2="137.32" y2="325.72" xlink:href="#linear-gradient-61"/><linearGradient id="linear-gradient-124" x1="170.31" y1="169.68" x2="170.31" y2="325.72" xlink:href="#linear-gradient-61"/><linearGradient id="linear-gradient-125" x1="194" y1="169.68" x2="194" y2="325.72" xlink:href="#linear-gradient-61"/><linearGradient id="linear-gradient-126" x1="214.54" y1="169.68" x2="214.54" y2="325.72" xlink:href="#linear-gradient-61"/><linearGradient id="linear-gradient-127" x1="235.08" y1="169.68" x2="235.08" y2="325.72" xlink:href="#linear-gradient-61"/><linearGradient id="linear-gradient-128" x1="260.85" y1="169.68" x2="260.85" y2="325.72" xlink:href="#linear-gradient-61"/><linearGradient id="linear-gradient-129" x1="277.46" y1="169.68" x2="277.46" y2="325.72" xlink:href="#linear-gradient-61"/><linearGradient id="linear-gradient-130" x1="316.2" y1="169.68" x2="316.2" y2="325.72" xlink:href="#linear-gradient-61"/><linearGradient id="linear-gradient-131" x1="342.97" y1="169.68" x2="342.97" y2="325.72" xlink:href="#linear-gradient-61"/><linearGradient id="linear-gradient-132" x1="366.17" y1="169.68" x2="366.17" y2="325.72" xlink:href="#linear-gradient-61"/><linearGradient id="linear-gradient-133" x1="382.79" y1="169.68" x2="382.79" y2="325.72" xlink:href="#linear-gradient-61"/><linearGradient id="linear-gradient-134" x1="396.74" y1="169.68" x2="396.74" y2="325.72" xlink:href="#linear-gradient-61"/><linearGradient id="linear-gradient-135" x1="416.28" y1="169.68" x2="416.28" y2="325.72" xlink:href="#linear-gradient-61"/><linearGradient id="linear-gradient-136" x1="83.71" y1="169.68" x2="83.71" y2="325.72" xlink:href="#linear-gradient-61"/></defs><path class="cls-9" d="M75.68,216.56h10.8c8.71,0,16.23-5.04,16.23-13.55,0-6.68-4.32-10.87-10.74-11.98,4.91-1.31,8.71-5.11,8.71-9.82,0-6.74-5.83-10.47-15.84-10.47h-9.16c.26,2.62.46,4.65.46,9.43v26.97c0,4.78-.2,6.81-.46,9.43h0ZM83.47,172.24c6.94,0,9.56,3.34,9.56,8.97s-2.36,8.77-7.14,9.69v.98c6.48.92,9.23,4.91,9.23,11.46,0,7.72-3.6,11.72-10.15,11.72h-1.51v-42.81h.01Z"/><path class="cls-8" d="M108.28,216.56h20.09l1.77-5.37c-2.75,1.38-6.61,3.4-12.89,3.8l-1.18.06v-34.89c0-4.78.2-6.81.46-9.43h-8.25c.26,2.62.46,4.65.46,9.43v26.97c0,4.78-.2,6.81-.46,9.43h0Z"/><path class="cls-7" d="M137.74,206.8l3.47-9.23h12.31l3.73,9.75c1.51,4.06,2.23,6.74,1.24,9.23h10.67c-1.18-2.36-1.96-4.84-2.88-7.2l-15.32-39.27h-1.24l-17.8,46.47h5.17c-1.38-2.55-.98-5.37.65-9.75h0ZM147.3,181.21l5.63,14.66h-11.13l5.5-14.66Z"/><path class="cls-6" d="M206.66,214.33l1.31-7.27c-3.86,5.76-8.51,8.71-14.53,8.71-8.71,0-17.74-6.48-17.74-22.26s9.03-21.99,17.28-21.99c5.3,0,11.13,2.49,14.2,8.9l-.92-7.79c-3.8-1.96-8.58-2.95-13.29-2.95-13.03,0-25.2,9.03-25.2,23.83s12.18,24.09,25.2,24.09c4.91,0,9.88-1.18,13.68-3.27h.01Z"/><path class="cls-3" d="M213.15,216.56h8.25c-.26-2.62-.46-4.65-.46-9.43v-15.45c4.26.59,5.89,5.56,11.85,24.87h8.64v-.2c-3.08-2.36-8.57-29.72-16.23-29.46l7.79-9.75c2.16-2.62,4.52-5.04,6.41-6.41h-5.89c-.33,1.44-1.24,3.4-2.42,5.17l-10.15,14.99v-10.74c0-4.78.2-6.81.46-9.43h-8.25c.26,2.62.46,4.65.46,9.43v26.97c0,4.78-.2,6.81-.46,9.43h0Z"/><path class="cls-4" d="M248.82,210.73c-1.51.52-2.81,1.77-3.34,3.21.52,1.44,1.83,2.75,3.34,3.27,1.44-.52,2.75-1.83,3.27-3.27-.52-1.51-1.83-2.68-3.27-3.21Z"/><path class="cls-2" d="M275.07,216.56h10.8c8.71,0,16.23-5.04,16.23-13.55,0-6.68-4.32-10.87-10.74-11.98,4.91-1.31,8.71-5.11,8.71-9.82,0-6.74-5.83-10.47-15.84-10.47h-9.16c.26,2.62.46,4.65.46,9.43v26.97c0,4.78-.2,6.81-.46,9.43h0ZM282.86,172.24c6.94,0,9.56,3.34,9.56,8.97s-2.36,8.77-7.13,9.69v.98c6.48.92,9.23,4.91,9.23,11.46,0,7.72-3.6,11.72-10.14,11.72h-1.51v-42.81h0Z"/><path class="cls-1" d="M329.4,217.6c13.09,0,23.83-9.69,23.83-24.09s-10.74-23.83-23.83-23.83-23.7,9.49-23.7,23.83,10.67,24.09,23.7,24.09ZM329.47,171.65c8.31,0,15.91,5.43,15.91,21.86s-7.59,22.12-15.91,22.12-15.91-5.69-15.91-22.12,7.59-21.86,15.91-21.86Z"/><path class="cls-5" d="M358.66,216.56h20.09l1.77-5.37c-2.75,1.38-6.61,3.4-12.89,3.8l-1.18.06v-34.89c0-4.78.2-6.81.46-9.43h-8.25c.26,2.62.46,4.65.46,9.43v26.97c0,4.78-.2,6.81-.46,9.43h0Z"/><path class="cls-21" d="M420.39,193.19c0-14.92-12.37-22.45-27.16-22.45h-8.9c.26,2.62.46,4.65.46,9.36v27.1c0,4.71-.2,6.74-.46,9.36h8.9c14.86,0,27.16-8.44,27.16-23.37h0ZM393.94,215.05h-1.83v-42.81h1.83c9.56,0,18.52,4.65,18.52,20.95s-8.97,21.86-18.52,21.86Z"/><path class="cls-22" d="M417.71,213.94c.52,1.44,1.83,2.75,3.34,3.27,1.44-.52,2.75-1.83,3.27-3.27-.52-1.51-1.83-2.68-3.27-3.21-1.51.52-2.81,1.77-3.34,3.21Z"/><path class="cls-10" d="M421.04,283.76c-1.51.52-2.81,1.77-3.34,3.21.52,1.44,1.83,2.75,3.34,3.27,1.44-.52,2.75-1.83,3.27-3.27-.52-1.51-1.83-2.68-3.27-3.21Z"/><path class="cls-10" d="M95.8,259.15c6.06-1.62,10.75-6.3,10.75-12.12,0-8.32-7.19-12.93-19.55-12.93h-11.31c.32,3.23.57,5.74.57,11.63v33.29c0,5.9-.24,8.4-.57,11.63h13.33c10.75,0,20.04-6.22,20.04-16.72,0-8.24-5.33-13.41-13.25-14.79h-.01ZM87.16,288.8h-1.86v-52.84c8.56,0,11.8,4.12,11.8,11.07s-2.91,10.83-8.81,11.96v1.21c8,1.13,11.39,6.06,11.39,14.14,0,9.53-4.44,14.46-12.52,14.46Z"/><path class="cls-10" d="M142.75,232.81c-16.08,0-29.25,11.71-29.25,29.41s13.17,29.73,29.25,29.73,29.41-11.96,29.41-29.73-13.25-29.41-29.41-29.41h0ZM142.83,289.53c-10.26,0-19.63-7.03-19.63-27.31s9.37-26.99,19.63-26.99,19.63,6.71,19.63,26.99-9.37,27.31-19.63,27.31Z"/><path class="cls-10" d="M206.09,245.73v32.32c0,6.38-2.91,10.1-8.48,10.1-6.22,0-9.21-3.72-9.21-10.1v-32.32c0-3.23.08-8.48.89-11.63h-10.83c.65,3.55.89,6.22.89,11.63v31.75c0,10.02,6.06,14.46,15.19,14.46,8.24,0,13.98-4.44,13.98-14.46v-31.75c0-4.36.32-9.29.73-11.63h-4.44c.97,3.23,1.29,7.76,1.29,11.63h0Z"/><path class="cls-10" d="M249.32,234.1h-5.17c1.62,2.99,1.94,6.06,1.94,13.41v22.3c-1.37-2.5-2.83-4.2-4.28-5.98l-14.38-18.75c-3.31-3.72-5.17-6.46-5.57-11.23l-4.61.24c1.37,3.07,1.78,5.98,1.78,11.96v32.96c0,5.66-.41,8.08-1.45,11.63h5.65c-1.7-3.39-1.86-5.9-1.86-11.55v-28.85c1.29,3.39,3.15,5.49,6.79,9.53l12.2,16.08c4.12,5.25,5.49,7.19,5.49,10.58,0,1.29-.24,2.67-.73,4.2h4.2c-.73-3.47-.81-5.9-.81-11.63v-33.29c0-5.66.24-8.08.81-11.63v.02Z"/><path class="cls-10" d="M270.33,234.1h-10.99c.32,3.23.57,5.74.57,11.55v33.45c0,5.82-.24,8.32-.57,11.55h10.99c18.34,0,33.53-10.42,33.53-28.84s-15.27-27.71-33.53-27.71h0ZM271.22,288.8h-2.26v-52.84h2.26c11.8,0,22.87,5.74,22.87,25.85s-11.07,26.99-22.87,26.99Z"/><path class="cls-10" d="M319.94,288.8v-43.06c0-5.9.24-8.4.57-11.63h-10.18c.32,3.23.57,5.74.57,11.63v33.29c0,5.9-.24,8.4-.57,11.63h24.8l2.18-6.63c-3.39,1.7-8.16,4.2-15.92,4.69l-1.45.08h0Z"/><path class="cls-10" d="M342.56,245.73v33.29c0,5.66-.24,8.32-.57,11.63h24.97v-4.77c-3.8,1.78-7.68,2.91-12.93,2.91h-2.43v-32.48c6.63,0,9.62.24,13.41,1.05v-3.96c-3.8.81-6.79,1.05-13.41,1.05v-18.5h1.86c5.01,0,9.29.73,13.49,2.91v-4.77h-24.97c.41,3.07.57,5.82.57,11.63h.01Z"/><path class="cls-10" d="M378.12,244.12c0-4.12,2.83-7.27,7.03-7.27,2.67,0,4.85.97,6.22,2.83l-1.86-5.74c-9.94,0-17.53,6.71-17.53,15.75,0,6.55,4.12,11.23,7.59,15.84s6.87,8.65,6.87,13.65-3.47,8.4-8.16,8.4c-2.34,0-5.01-.81-6.87-3.15l1.45,6.22c12.36,0,19.88-7.76,19.88-17.29,0-6.14-3.64-11.39-7.92-17.13-3.07-4.12-6.71-7.51-6.71-12.12h0Z"/><path class="cls-10" d="M409.79,256.24c-3.07-4.12-6.71-7.51-6.71-12.12,0-4.12,2.83-7.27,7.03-7.27,2.67,0,4.85.97,6.22,2.83l-1.86-5.74c-9.94,0-17.53,6.71-17.53,15.75,0,6.55,4.12,11.23,7.59,15.84,3.47,4.61,6.87,8.65,6.87,13.65s-3.47,8.4-8.16,8.4c-2.34,0-5.01-.81-6.87-3.15l1.45,6.22c12.36,0,19.87-7.76,19.87-17.29,0-6.14-3.63-11.39-7.92-17.13h.02Z"/><path class="cls-23" d="M75.68,216.56h10.8c8.71,0,16.23-5.04,16.23-13.55,0-6.68-4.32-10.87-10.74-11.98,4.91-1.31,8.71-5.11,8.71-9.82,0-6.74-5.83-10.47-15.84-10.47h-9.16c.26,2.62.46,4.65.46,9.43v26.97c0,4.78-.2,6.81-.46,9.43h0ZM83.47,172.24c6.94,0,9.56,3.34,9.56,8.97s-2.36,8.77-7.14,9.69v.98c6.48.92,9.23,4.91,9.23,11.46,0,7.72-3.6,11.72-10.15,11.72h-1.51v-42.81h.01Z"/><path class="cls-24" d="M108.28,216.56h20.09l1.77-5.37c-2.75,1.38-6.61,3.4-12.89,3.8l-1.18.06v-34.89c0-4.78.2-6.81.46-9.43h-8.25c.26,2.62.46,4.65.46,9.43v26.97c0,4.78-.2,6.81-.46,9.43h0Z"/><path class="cls-26" d="M137.74,206.8l3.47-9.23h12.31l3.73,9.75c1.51,4.06,2.23,6.74,1.24,9.23h10.67c-1.18-2.36-1.96-4.84-2.88-7.2l-15.32-39.27h-1.24l-17.8,46.47h5.17c-1.38-2.55-.98-5.37.65-9.75h0ZM147.3,181.21l5.63,14.66h-11.13l5.5-14.66Z"/><path class="cls-37" d="M206.66,214.33l1.31-7.27c-3.86,5.76-8.51,8.71-14.53,8.71-8.71,0-17.74-6.48-17.74-22.26s9.03-21.99,17.28-21.99c5.3,0,11.13,2.49,14.2,8.9l-.92-7.79c-3.8-1.96-8.58-2.95-13.29-2.95-13.03,0-25.2,9.03-25.2,23.83s12.18,24.09,25.2,24.09c4.91,0,9.88-1.18,13.68-3.27h.01Z"/><path class="cls-38" d="M213.15,216.56h8.25c-.26-2.62-.46-4.65-.46-9.43v-15.45c4.26.59,5.89,5.56,11.85,24.87h8.64v-.2c-3.08-2.36-8.57-29.72-16.23-29.46l7.79-9.75c2.16-2.62,4.52-5.04,6.41-6.41h-5.89c-.33,1.44-1.24,3.4-2.42,5.17l-10.15,14.99v-10.74c0-4.78.2-6.81.46-9.43h-8.25c.26,2.62.46,4.65.46,9.43v26.97c0,4.78-.2,6.81-.46,9.43h0Z"/><path class="cls-39" d="M248.82,210.73c-1.51.52-2.81,1.77-3.34,3.21.52,1.44,1.83,2.75,3.34,3.27,1.44-.52,2.75-1.83,3.27-3.27-.52-1.51-1.83-2.68-3.27-3.21Z"/><path class="cls-40" d="M275.07,216.56h10.8c8.71,0,16.23-5.04,16.23-13.55,0-6.68-4.32-10.87-10.74-11.98,4.91-1.31,8.71-5.11,8.71-9.82,0-6.74-5.83-10.47-15.84-10.47h-9.16c.26,2.62.46,4.65.46,9.43v26.97c0,4.78-.2,6.81-.46,9.43h0ZM282.86,172.24c6.94,0,9.56,3.34,9.56,8.97s-2.36,8.77-7.13,9.69v.98c6.48.92,9.23,4.91,9.23,11.46,0,7.72-3.6,11.72-10.14,11.72h-1.51v-42.81h0Z"/><path class="cls-25" d="M329.4,217.6c13.09,0,23.83-9.69,23.83-24.09s-10.74-23.83-23.83-23.83-23.7,9.49-23.7,23.83,10.67,24.09,23.7,24.09ZM329.47,171.65c8.31,0,15.91,5.43,15.91,21.86s-7.59,22.12-15.91,22.12-15.91-5.69-15.91-22.12,7.59-21.86,15.91-21.86Z"/><path class="cls-28" d="M358.66,216.56h20.09l1.77-5.37c-2.75,1.38-6.61,3.4-12.89,3.8l-1.18.06v-34.89c0-4.78.2-6.81.46-9.43h-8.25c.26,2.62.46,4.65.46,9.43v26.97c0,4.78-.2,6.81-.46,9.43h0Z"/><path class="cls-27" d="M420.39,193.19c0-14.92-12.37-22.45-27.16-22.45h-8.9c.26,2.62.46,4.65.46,9.36v27.1c0,4.71-.2,6.74-.46,9.36h8.9c14.86,0,27.16-8.44,27.16-23.37h0ZM393.94,215.05h-1.83v-42.81h1.83c9.56,0,18.52,4.65,18.52,20.95s-8.97,21.86-18.52,21.86Z"/><path class="cls-29" d="M417.71,213.94c.52,1.44,1.83,2.75,3.34,3.27,1.44-.52,2.75-1.83,3.27-3.27-.52-1.51-1.83-2.68-3.27-3.21-1.51.52-2.81,1.77-3.34,3.21Z"/><path class="cls-30" d="M421.04,283.76c-1.51.52-2.81,1.77-3.34,3.21.52,1.44,1.83,2.75,3.34,3.27,1.44-.52,2.75-1.83,3.27-3.27-.52-1.51-1.83-2.68-3.27-3.21Z"/><path class="cls-46" d="M95.8,259.15c6.06-1.62,10.75-6.3,10.75-12.12,0-8.32-7.19-12.93-19.55-12.93h-11.31c.32,3.23.57,5.74.57,11.63v33.29c0,5.9-.24,8.4-.57,11.63h13.33c10.75,0,20.04-6.22,20.04-16.72,0-8.24-5.33-13.41-13.25-14.79h-.01ZM87.16,288.8h-1.86v-52.84c8.56,0,11.8,4.12,11.8,11.07s-2.91,10.83-8.81,11.96v1.21c8,1.13,11.39,6.06,11.39,14.14,0,9.53-4.44,14.46-12.52,14.46Z"/><path class="cls-32" d="M142.75,232.81c-16.08,0-29.25,11.71-29.25,29.41s13.17,29.73,29.25,29.73,29.41-11.96,29.41-29.73-13.25-29.41-29.41-29.41h0ZM142.83,289.53c-10.26,0-19.63-7.03-19.63-27.31s9.37-26.99,19.63-26.99,19.63,6.71,19.63,26.99-9.37,27.31-19.63,27.31Z"/><path class="cls-47" d="M206.09,245.73v32.32c0,6.38-2.91,10.1-8.48,10.1-6.22,0-9.21-3.72-9.21-10.1v-32.32c0-3.23.08-8.48.89-11.63h-10.83c.65,3.55.89,6.22.89,11.63v31.75c0,10.02,6.06,14.46,15.19,14.46,8.24,0,13.98-4.44,13.98-14.46v-31.75c0-4.36.32-9.29.73-11.63h-4.44c.97,3.23,1.29,7.76,1.29,11.63h0Z"/><path class="cls-45" d="M249.32,234.1h-5.17c1.62,2.99,1.94,6.06,1.94,13.41v22.3c-1.37-2.5-2.83-4.2-4.28-5.98l-14.38-18.75c-3.31-3.72-5.17-6.46-5.57-11.23l-4.61.24c1.37,3.07,1.78,5.98,1.78,11.96v32.96c0,5.66-.41,8.08-1.45,11.63h5.65c-1.7-3.39-1.86-5.9-1.86-11.55v-28.85c1.29,3.39,3.15,5.49,6.79,9.53l12.2,16.08c4.12,5.25,5.49,7.19,5.49,10.58,0,1.29-.24,2.67-.73,4.2h4.2c-.73-3.47-.81-5.9-.81-11.63v-33.29c0-5.66.24-8.08.81-11.63v.02Z"/><path class="cls-31" d="M270.33,234.1h-10.99c.32,3.23.57,5.74.57,11.55v33.45c0,5.82-.24,8.32-.57,11.55h10.99c18.34,0,33.53-10.42,33.53-28.84s-15.27-27.71-33.53-27.71h0ZM271.22,288.8h-2.26v-52.84h2.26c11.8,0,22.87,5.74,22.87,25.85s-11.07,26.99-22.87,26.99Z"/><path class="cls-48" d="M319.94,288.8v-43.06c0-5.9.24-8.4.57-11.63h-10.18c.32,3.23.57,5.74.57,11.63v33.29c0,5.9-.24,8.4-.57,11.63h24.8l2.18-6.63c-3.39,1.7-8.16,4.2-15.92,4.69l-1.45.08h0Z"/><path class="cls-36" d="M342.56,245.73v33.29c0,5.66-.24,8.32-.57,11.63h24.97v-4.77c-3.8,1.78-7.68,2.91-12.93,2.91h-2.43v-32.48c6.63,0,9.62.24,13.41,1.05v-3.96c-3.8.81-6.79,1.05-13.41,1.05v-18.5h1.86c5.01,0,9.29.73,13.49,2.91v-4.77h-24.97c.41,3.07.57,5.82.57,11.63h.01Z"/><path class="cls-34" d="M378.12,244.12c0-4.12,2.83-7.27,7.03-7.27,2.67,0,4.85.97,6.22,2.83l-1.86-5.74c-9.94,0-17.53,6.71-17.53,15.75,0,6.55,4.12,11.23,7.59,15.84s6.87,8.65,6.87,13.65-3.47,8.4-8.16,8.4c-2.34,0-5.01-.81-6.87-3.15l1.45,6.22c12.36,0,19.88-7.76,19.88-17.29,0-6.14-3.64-11.39-7.92-17.13-3.07-4.12-6.71-7.51-6.71-12.12h0Z"/><path class="cls-33" d="M409.79,256.24c-3.07-4.12-6.71-7.51-6.71-12.12,0-4.12,2.83-7.27,7.03-7.27,2.67,0,4.85.97,6.22,2.83l-1.86-5.74c-9.94,0-17.53,6.71-17.53,15.75,0,6.55,4.12,11.23,7.59,15.84,3.47,4.61,6.87,8.65,6.87,13.65s-3.47,8.4-8.16,8.4c-2.34,0-5.01-.81-6.87-3.15l1.45,6.22c12.36,0,19.87-7.76,19.87-17.29,0-6.14-3.63-11.39-7.92-17.13h.02Z"/><path class="cls-35" d="M112.49,327.24c4.39-2.7,9.46-7.47,9.46-12.08,0-3.22-2.05-5.16-5.4-5.16s-5.46,2.1-5.46,4.77c0,.95.24,1.97.79,3l.41-.22c-.57-.95-.74-2.05-.74-2.81,0-2.54,2.05-4.03,3.98-4.03,2.38,0,3.55,1.94,3.55,4.36,0,4.72-3.16,9.68-9.55,13.96v.22h12.57l.68-1.94h-10.29c0-.06-.03-.08-.03-.08h0Z"/><polygon class="cls-42" points="143.82 310.24 142.48 310.24 138.03 318.13 133.35 310.24 130.15 310.24 136.13 320.25 129.94 329.25 131.32 329.25 136.37 320.67 141.5 329.25 144.69 329.25 138.26 318.48 143.82 310.24"/><path class="cls-41" d="M176.08,323.47c0,2.51-1.28,5.48-5.23,5.48-3.28,0-5.92-2.72-5.92-9.28s2.75-9.19,5.81-9.19c2.51,0,4.8,1.44,4.8,6.17h2.72c.03-.19.03-.49.03-.74,0-2.54-1.94-5.86-7.58-5.86-5.02,0-8.92,3.55-8.92,10.06,0,5.92,3.11,9.33,8.95,9.33,2.4,0,4.6-1.23,5.62-3.55l2.18,3.6h.3v-8.54h-2.75v2.53Z"/><path class="cls-43" d="M190.99,310.24l1.72,4.12-6.74,14.89h1.34l1.82-4.72h7.88l1.99,4.72h3.02l-8.15-19.01h-2.89,0ZM189.3,324.07l3.63-9.25,3.9,9.25h-7.53,0Z"/><polygon class="cls-49" points="212.04 310.24 209.17 310.24 209.17 329.25 219.45 329.25 219.92 328.08 212.04 328.79 212.04 310.24"/><path class="cls-44" d="M232.07,310.24l1.72,4.12-6.74,14.89h1.34l1.83-4.72h7.88l1.99,4.72h3.02l-8.15-19.01h-2.89ZM230.38,324.07l3.63-9.25,3.9,9.25h-7.52Z"/><rect class="cls-50" x="259.4" y="310.24" width="2.89" height="19.01"/><polygon class="cls-12" points="284.53 326.01 270.33 309.57 270.16 309.57 269.43 329.25 270.54 329.25 270.44 313.6 284.7 330.26 284.83 330.26 285.49 310.24 284.35 310.24 284.53 326.01"/><polygon class="cls-13" points="324.24 309.57 316.84 326.99 308.36 309.57 308.22 309.57 304.6 329.25 305.8 329.25 307.79 314.26 315.53 330.32 315.7 330.32 322.63 315.15 325.02 329.25 327.8 329.25 324.37 309.57 324.24 309.57"/><path class="cls-14" d="M339.96,310.24l1.72,4.12-6.74,14.89h1.34l1.82-4.72h7.88l1.99,4.72h3.02l-8.15-19.01h-2.89,0ZM338.26,324.07l3.63-9.25,3.9,9.25h-7.53,0Z"/><polygon class="cls-11" points="373.25 326.01 359.04 309.57 358.87 309.57 358.14 329.25 359.26 329.25 359.15 313.6 373.42 330.26 373.55 330.26 374.2 310.24 373.06 310.24 373.25 326.01"/><rect class="cls-19" x="381.35" y="310.24" width="2.89" height="19.01"/><polygon class="cls-17" points="394.23 310.24 391.37 310.24 391.37 329.25 401.65 329.25 402.11 328.08 394.23 328.79 394.23 310.24"/><path class="cls-20" d="M416.16,310.24h-2.89l1.72,4.12-6.74,14.89h1.34l1.83-4.72h7.88l1.99,4.72h3.02l-8.15-19.01h0ZM411.58,324.07l3.63-9.25,3.9,9.25h-7.52,0Z"/><path class="cls-18" d="M112.49,327.24c4.39-2.7,9.46-7.47,9.46-12.08,0-3.22-2.05-5.16-5.4-5.16s-5.46,2.1-5.46,4.77c0,.95.24,1.97.79,3l.41-.22c-.57-.95-.74-2.05-.74-2.81,0-2.54,2.05-4.03,3.98-4.03,2.38,0,3.55,1.94,3.55,4.36,0,4.72-3.16,9.68-9.55,13.96v.22h12.57l.68-1.94h-10.29c0-.06-.03-.08-.03-.08h0Z"/><polygon class="cls-16" points="143.82 310.24 142.48 310.24 138.03 318.13 133.35 310.24 130.15 310.24 136.13 320.25 129.94 329.25 131.32 329.25 136.37 320.67 141.5 329.25 144.69 329.25 138.26 318.48 143.82 310.24"/><path class="cls-15" d="M176.08,323.47c0,2.51-1.28,5.48-5.23,5.48-3.28,0-5.92-2.72-5.92-9.28s2.75-9.19,5.81-9.19c2.51,0,4.8,1.44,4.8,6.17h2.72c.03-.19.03-.49.03-.74,0-2.54-1.94-5.86-7.58-5.86-5.02,0-8.92,3.55-8.92,10.06,0,5.92,3.11,9.33,8.95,9.33,2.4,0,4.6-1.23,5.62-3.55l2.18,3.6h.3v-8.54h-2.75v2.53Z"/><path class="cls-58" d="M190.99,310.24l1.72,4.12-6.74,14.89h1.34l1.82-4.72h7.88l1.99,4.72h3.02l-8.15-19.01h-2.89,0ZM189.3,324.07l3.63-9.25,3.9,9.25h-7.53,0Z"/><polygon class="cls-59" points="212.04 310.24 209.17 310.24 209.17 329.25 219.45 329.25 219.92 328.08 212.04 328.79 212.04 310.24"/><path class="cls-60" d="M232.07,310.24l1.72,4.12-6.74,14.89h1.34l1.83-4.72h7.88l1.99,4.72h3.02l-8.15-19.01h-2.89ZM230.38,324.07l3.63-9.25,3.9,9.25h-7.52Z"/><rect class="cls-54" x="259.4" y="310.24" width="2.89" height="19.01"/><polygon class="cls-55" points="284.53 326.01 270.33 309.57 270.16 309.57 269.43 329.25 270.54 329.25 270.44 313.6 284.7 330.26 284.83 330.26 285.49 310.24 284.35 310.24 284.53 326.01"/><polygon class="cls-56" points="324.24 309.57 316.84 326.99 308.36 309.57 308.22 309.57 304.6 329.25 305.8 329.25 307.79 314.26 315.53 330.32 315.7 330.32 322.63 315.15 325.02 329.25 327.8 329.25 324.37 309.57 324.24 309.57"/><path class="cls-57" d="M339.96,310.24l1.72,4.12-6.74,14.89h1.34l1.82-4.72h7.88l1.99,4.72h3.02l-8.15-19.01h-2.89,0ZM338.26,324.07l3.63-9.25,3.9,9.25h-7.53,0Z"/><polygon class="cls-51" points="373.25 326.01 359.04 309.57 358.87 309.57 358.14 329.25 359.26 329.25 359.15 313.6 373.42 330.26 373.55 330.26 374.2 310.24 373.06 310.24 373.25 326.01"/><rect class="cls-52" x="381.35" y="310.24" width="2.89" height="19.01"/><polygon class="cls-53" points="394.23 310.24 391.37 310.24 391.37 329.25 401.65 329.25 402.11 328.08 394.23 328.79 394.23 310.24"/><path class="cls-68" d="M416.16,310.24h-2.89l1.72,4.12-6.74,14.89h1.34l1.83-4.72h7.88l1.99,4.72h3.02l-8.15-19.01h0ZM411.58,324.07l3.63-9.25,3.9,9.25h-7.52,0Z"/><path class="cls-69" d="M75.68,216.56h10.8c8.71,0,16.23-5.04,16.23-13.55,0-6.68-4.32-10.87-10.74-11.98,4.91-1.31,8.71-5.11,8.71-9.82,0-6.74-5.83-10.47-15.84-10.47h-9.16c.26,2.62.46,4.65.46,9.43v26.97c0,4.78-.2,6.81-.46,9.43h0ZM83.47,172.24c6.94,0,9.56,3.34,9.56,8.97s-2.36,8.77-7.14,9.69v.98c6.48.92,9.23,4.91,9.23,11.46,0,7.72-3.6,11.72-10.15,11.72h-1.51v-42.81h.01Z"/><path class="cls-70" d="M108.28,216.56h20.09l1.77-5.37c-2.75,1.38-6.61,3.4-12.89,3.8l-1.18.06v-34.89c0-4.78.2-6.81.46-9.43h-8.25c.26,2.62.46,4.65.46,9.43v26.97c0,4.78-.2,6.81-.46,9.43h0Z"/><path class="cls-64" d="M137.74,206.8l3.47-9.23h12.31l3.73,9.75c1.51,4.06,2.23,6.74,1.24,9.23h10.67c-1.18-2.36-1.96-4.84-2.88-7.2l-15.32-39.27h-1.24l-17.8,46.47h5.17c-1.38-2.55-.98-5.37.65-9.75h0ZM147.3,181.21l5.63,14.66h-11.13l5.5-14.66Z"/><path class="cls-65" d="M206.66,214.33l1.31-7.27c-3.86,5.76-8.51,8.71-14.53,8.71-8.71,0-17.74-6.48-17.74-22.26s9.03-21.99,17.28-21.99c5.3,0,11.13,2.49,14.2,8.9l-.92-7.79c-3.8-1.96-8.58-2.95-13.29-2.95-13.03,0-25.2,9.03-25.2,23.83s12.18,24.09,25.2,24.09c4.91,0,9.88-1.18,13.68-3.27h.01Z"/><path class="cls-66" d="M213.15,216.56h8.25c-.26-2.62-.46-4.65-.46-9.43v-15.45c4.26.59,5.89,5.56,11.85,24.87h8.64v-.2c-3.08-2.36-8.57-29.72-16.23-29.46l7.79-9.75c2.16-2.62,4.52-5.04,6.41-6.41h-5.89c-.33,1.44-1.24,3.4-2.42,5.17l-10.15,14.99v-10.74c0-4.78.2-6.81.46-9.43h-8.25c.26,2.62.46,4.65.46,9.43v26.97c0,4.78-.2,6.81-.46,9.43h0Z"/><path class="cls-67" d="M248.82,210.73c-1.51.52-2.81,1.77-3.34,3.21.52,1.44,1.83,2.75,3.34,3.27,1.44-.52,2.75-1.83,3.27-3.27-.52-1.51-1.83-2.68-3.27-3.21Z"/><path class="cls-61" d="M275.07,216.56h10.8c8.71,0,16.23-5.04,16.23-13.55,0-6.68-4.32-10.87-10.74-11.98,4.91-1.31,8.71-5.11,8.71-9.82,0-6.74-5.83-10.47-15.84-10.47h-9.16c.26,2.62.46,4.65.46,9.43v26.97c0,4.78-.2,6.81-.46,9.43h0ZM282.86,172.24c6.94,0,9.56,3.34,9.56,8.97s-2.36,8.77-7.13,9.69v.98c6.48.92,9.23,4.91,9.23,11.46,0,7.72-3.6,11.72-10.14,11.72h-1.51v-42.81h0Z"/><path class="cls-62" d="M329.4,217.6c13.09,0,23.83-9.69,23.83-24.09s-10.74-23.83-23.83-23.83-23.7,9.49-23.7,23.83,10.67,24.09,23.7,24.09ZM329.47,171.65c8.31,0,15.91,5.43,15.91,21.86s-7.59,22.12-15.91,22.12-15.91-5.69-15.91-22.12,7.59-21.86,15.91-21.86Z"/><path class="cls-63" d="M358.66,216.56h20.09l1.77-5.37c-2.75,1.38-6.61,3.4-12.89,3.8l-1.18.06v-34.89c0-4.78.2-6.81.46-9.43h-8.25c.26,2.62.46,4.65.46,9.43v26.97c0,4.78-.2,6.81-.46,9.43h0Z"/><path class="cls-80" d="M420.39,193.19c0-14.92-12.37-22.45-27.16-22.45h-8.9c.26,2.62.46,4.65.46,9.36v27.1c0,4.71-.2,6.74-.46,9.36h8.9c14.86,0,27.16-8.44,27.16-23.37h0ZM393.94,215.05h-1.83v-42.81h1.83c9.56,0,18.52,4.65,18.52,20.95s-8.97,21.86-18.52,21.86Z"/><path class="cls-78" d="M417.71,213.94c.52,1.44,1.83,2.75,3.34,3.27,1.44-.52,2.75-1.83,3.27-3.27-.52-1.51-1.83-2.68-3.27-3.21-1.51.52-2.81,1.77-3.34,3.21Z"/><path class="cls-74" d="M421.04,283.76c-1.51.52-2.81,1.77-3.34,3.21.52,1.44,1.83,2.75,3.34,3.27,1.44-.52,2.75-1.83,3.27-3.27-.52-1.51-1.83-2.68-3.27-3.21Z"/><path class="cls-79" d="M95.8,259.15c6.06-1.62,10.75-6.3,10.75-12.12,0-8.32-7.19-12.93-19.55-12.93h-11.31c.32,3.23.57,5.74.57,11.63v33.29c0,5.9-.24,8.4-.57,11.63h13.33c10.75,0,20.04-6.22,20.04-16.72,0-8.24-5.33-13.41-13.25-14.79h-.01ZM87.16,288.8h-1.86v-52.84c8.56,0,11.8,4.12,11.8,11.07s-2.91,10.83-8.81,11.96v1.21c8,1.13,11.39,6.06,11.39,14.14,0,9.53-4.44,14.46-12.52,14.46Z"/><path class="cls-76" d="M142.75,232.81c-16.08,0-29.25,11.71-29.25,29.41s13.17,29.73,29.25,29.73,29.41-11.96,29.41-29.73-13.25-29.41-29.41-29.41h0ZM142.83,289.53c-10.26,0-19.63-7.03-19.63-27.31s9.37-26.99,19.63-26.99,19.63,6.71,19.63,26.99-9.37,27.31-19.63,27.31Z"/><path class="cls-73" d="M206.09,245.73v32.32c0,6.38-2.91,10.1-8.48,10.1-6.22,0-9.21-3.72-9.21-10.1v-32.32c0-3.23.08-8.48.89-11.63h-10.83c.65,3.55.89,6.22.89,11.63v31.75c0,10.02,6.06,14.46,15.19,14.46,8.24,0,13.98-4.44,13.98-14.46v-31.75c0-4.36.32-9.29.73-11.63h-4.44c.97,3.23,1.29,7.76,1.29,11.63h0Z"/><path class="cls-77" d="M249.32,234.1h-5.17c1.62,2.99,1.94,6.06,1.94,13.41v22.3c-1.37-2.5-2.83-4.2-4.28-5.98l-14.38-18.75c-3.31-3.72-5.17-6.46-5.57-11.23l-4.61.24c1.37,3.07,1.78,5.98,1.78,11.96v32.96c0,5.66-.41,8.08-1.45,11.63h5.65c-1.7-3.39-1.86-5.9-1.86-11.55v-28.85c1.29,3.39,3.15,5.49,6.79,9.53l12.2,16.08c4.12,5.25,5.49,7.19,5.49,10.58,0,1.29-.24,2.67-.73,4.2h4.2c-.73-3.47-.81-5.9-.81-11.63v-33.29c0-5.66.24-8.08.81-11.63v.02Z"/><path class="cls-75" d="M270.33,234.1h-10.99c.32,3.23.57,5.74.57,11.55v33.45c0,5.82-.24,8.32-.57,11.55h10.99c18.34,0,33.53-10.42,33.53-28.84s-15.27-27.71-33.53-27.71h0ZM271.22,288.8h-2.26v-52.84h2.26c11.8,0,22.87,5.74,22.87,25.85s-11.07,26.99-22.87,26.99Z"/><path class="cls-72" d="M319.94,288.8v-43.06c0-5.9.24-8.4.57-11.63h-10.18c.32,3.23.57,5.74.57,11.63v33.29c0,5.9-.24,8.4-.57,11.63h24.8l2.18-6.63c-3.39,1.7-8.16,4.2-15.92,4.69l-1.45.08h0Z"/><path class="cls-71" d="M342.56,245.73v33.29c0,5.66-.24,8.32-.57,11.63h24.97v-4.77c-3.8,1.78-7.68,2.91-12.93,2.91h-2.43v-32.48c6.63,0,9.62.24,13.41,1.05v-3.96c-3.8.81-6.79,1.05-13.41,1.05v-18.5h1.86c5.01,0,9.29.73,13.49,2.91v-4.77h-24.97c.41,3.07.57,5.82.57,11.63h.01Z"/><path class="cls-90" d="M378.12,244.12c0-4.12,2.83-7.27,7.03-7.27,2.67,0,4.85.97,6.22,2.83l-1.86-5.74c-9.94,0-17.53,6.71-17.53,15.75,0,6.55,4.12,11.23,7.59,15.84s6.87,8.65,6.87,13.65-3.47,8.4-8.16,8.4c-2.34,0-5.01-.81-6.87-3.15l1.45,6.22c12.36,0,19.88-7.76,19.88-17.29,0-6.14-3.64-11.39-7.92-17.13-3.07-4.12-6.71-7.51-6.71-12.12h0Z"/><path class="cls-89" d="M409.79,256.24c-3.07-4.12-6.71-7.51-6.71-12.12,0-4.12,2.83-7.27,7.03-7.27,2.67,0,4.85.97,6.22,2.83l-1.86-5.74c-9.94,0-17.53,6.71-17.53,15.75,0,6.55,4.12,11.23,7.59,15.84,3.47,4.61,6.87,8.65,6.87,13.65s-3.47,8.4-8.16,8.4c-2.34,0-5.01-.81-6.87-3.15l1.45,6.22c12.36,0,19.87-7.76,19.87-17.29,0-6.14-3.63-11.39-7.92-17.13h.02Z"/><path class="cls-69" d="M75.68,216.56h10.8c8.71,0,16.23-5.04,16.23-13.55,0-6.68-4.32-10.87-10.74-11.98,4.91-1.31,8.71-5.11,8.71-9.82,0-6.74-5.83-10.47-15.84-10.47h-9.16c.26,2.62.46,4.65.46,9.43v26.97c0,4.78-.2,6.81-.46,9.43h0ZM83.47,172.24c6.94,0,9.56,3.34,9.56,8.97s-2.36,8.77-7.14,9.69v.98c6.48.92,9.23,4.91,9.23,11.46,0,7.72-3.6,11.72-10.15,11.72h-1.51v-42.81h.01Z"/><path class="cls-86" d="M108.28,216.56h20.09l1.77-5.37c-2.75,1.38-6.61,3.4-12.89,3.8l-1.18.06v-34.89c0-4.78.2-6.81.46-9.43h-8.25c.26,2.62.46,4.65.46,9.43v26.97c0,4.78-.2,6.81-.46,9.43h0Z"/><path class="cls-85" d="M137.74,206.8l3.47-9.23h12.31l3.73,9.75c1.51,4.06,2.23,6.74,1.24,9.23h10.67c-1.18-2.36-1.96-4.84-2.88-7.2l-15.32-39.27h-1.24l-17.8,46.47h5.17c-1.38-2.55-.98-5.37.65-9.75h0ZM147.3,181.21l5.63,14.66h-11.13l5.5-14.66Z"/><path class="cls-87" d="M206.66,214.33l1.31-7.27c-3.86,5.76-8.51,8.71-14.53,8.71-8.71,0-17.74-6.48-17.74-22.26s9.03-21.99,17.28-21.99c5.3,0,11.13,2.49,14.2,8.9l-.92-7.79c-3.8-1.96-8.58-2.95-13.29-2.95-13.03,0-25.2,9.03-25.2,23.83s12.18,24.09,25.2,24.09c4.91,0,9.88-1.18,13.68-3.27h.01Z"/><path class="cls-84" d="M213.15,216.56h8.25c-.26-2.62-.46-4.65-.46-9.43v-15.45c4.26.59,5.89,5.56,11.85,24.87h8.64v-.2c-3.08-2.36-8.57-29.72-16.23-29.46l7.79-9.75c2.16-2.62,4.52-5.04,6.41-6.41h-5.89c-.33,1.44-1.24,3.4-2.42,5.17l-10.15,14.99v-10.74c0-4.78.2-6.81.46-9.43h-8.25c.26,2.62.46,4.65.46,9.43v26.97c0,4.78-.2,6.81-.46,9.43h0Z"/><path class="cls-88" d="M248.82,210.73c-1.51.52-2.81,1.77-3.34,3.21.52,1.44,1.83,2.75,3.34,3.27,1.44-.52,2.75-1.83,3.27-3.27-.52-1.51-1.83-2.68-3.27-3.21Z"/><path class="cls-81" d="M275.07,216.56h10.8c8.71,0,16.23-5.04,16.23-13.55,0-6.68-4.32-10.87-10.74-11.98,4.91-1.31,8.71-5.11,8.71-9.82,0-6.74-5.83-10.47-15.84-10.47h-9.16c.26,2.62.46,4.65.46,9.43v26.97c0,4.78-.2,6.81-.46,9.43h0ZM282.86,172.24c6.94,0,9.56,3.34,9.56,8.97s-2.36,8.77-7.13,9.69v.98c6.48.92,9.23,4.91,9.23,11.46,0,7.72-3.6,11.72-10.14,11.72h-1.51v-42.81h0Z"/><path class="cls-82" d="M329.4,217.6c13.09,0,23.83-9.69,23.83-24.09s-10.74-23.83-23.83-23.83-23.7,9.49-23.7,23.83,10.67,24.09,23.7,24.09ZM329.47,171.65c8.31,0,15.91,5.43,15.91,21.86s-7.59,22.12-15.91,22.12-15.91-5.69-15.91-22.12,7.59-21.86,15.91-21.86Z"/><path class="cls-83" d="M358.66,216.56h20.09l1.77-5.37c-2.75,1.38-6.61,3.4-12.89,3.8l-1.18.06v-34.89c0-4.78.2-6.81.46-9.43h-8.25c.26,2.62.46,4.65.46,9.43v26.97c0,4.78-.2,6.81-.46,9.43h0Z"/><path class="cls-100" d="M420.39,193.19c0-14.92-12.37-22.45-27.16-22.45h-8.9c.26,2.62.46,4.65.46,9.36v27.1c0,4.71-.2,6.74-.46,9.36h8.9c14.86,0,27.16-8.44,27.16-23.37h0ZM393.94,215.05h-1.83v-42.81h1.83c9.56,0,18.52,4.65,18.52,20.95s-8.97,21.86-18.52,21.86Z"/><path class="cls-98" d="M417.71,213.94c.52,1.44,1.83,2.75,3.34,3.27,1.44-.52,2.75-1.83,3.27-3.27-.52-1.51-1.83-2.68-3.27-3.21-1.51.52-2.81,1.77-3.34,3.21Z"/><path class="cls-95" d="M421.04,283.76c-1.51.52-2.81,1.77-3.34,3.21.52,1.44,1.83,2.75,3.34,3.27,1.44-.52,2.75-1.83,3.27-3.27-.52-1.51-1.83-2.68-3.27-3.21Z"/><path class="cls-96" d="M95.8,259.15c6.06-1.62,10.75-6.3,10.75-12.12,0-8.32-7.19-12.93-19.55-12.93h-11.31c.32,3.23.57,5.74.57,11.63v33.29c0,5.9-.24,8.4-.57,11.63h13.33c10.75,0,20.04-6.22,20.04-16.72,0-8.24-5.33-13.41-13.25-14.79h-.01ZM87.16,288.8h-1.86v-52.84c8.56,0,11.8,4.12,11.8,11.07s-2.91,10.83-8.81,11.96v1.21c8,1.13,11.39,6.06,11.39,14.14,0,9.53-4.44,14.46-12.52,14.46Z"/><path class="cls-97" d="M142.75,232.81c-16.08,0-29.25,11.71-29.25,29.41s13.17,29.73,29.25,29.73,29.41-11.96,29.41-29.73-13.25-29.41-29.41-29.41h0ZM142.83,289.53c-10.26,0-19.63-7.03-19.63-27.31s9.37-26.99,19.63-26.99,19.63,6.71,19.63,26.99-9.37,27.31-19.63,27.31Z"/><path class="cls-99" d="M206.09,245.73v32.32c0,6.38-2.91,10.1-8.48,10.1-6.22,0-9.21-3.72-9.21-10.1v-32.32c0-3.23.08-8.48.89-11.63h-10.83c.65,3.55.89,6.22.89,11.63v31.75c0,10.02,6.06,14.46,15.19,14.46,8.24,0,13.98-4.44,13.98-14.46v-31.75c0-4.36.32-9.29.73-11.63h-4.44c.97,3.23,1.29,7.76,1.29,11.63h0Z"/><path class="cls-92" d="M249.32,234.1h-5.17c1.62,2.99,1.94,6.06,1.94,13.41v22.3c-1.37-2.5-2.83-4.2-4.28-5.98l-14.38-18.75c-3.31-3.72-5.17-6.46-5.57-11.23l-4.61.24c1.37,3.07,1.78,5.98,1.78,11.96v32.96c0,5.66-.41,8.08-1.45,11.63h5.65c-1.7-3.39-1.86-5.9-1.86-11.55v-28.85c1.29,3.39,3.15,5.49,6.79,9.53l12.2,16.08c4.12,5.25,5.49,7.19,5.49,10.58,0,1.29-.24,2.67-.73,4.2h4.2c-.73-3.47-.81-5.9-.81-11.63v-33.29c0-5.66.24-8.08.81-11.63v.02Z"/><path class="cls-93" d="M270.33,234.1h-10.99c.32,3.23.57,5.74.57,11.55v33.45c0,5.82-.24,8.32-.57,11.55h10.99c18.34,0,33.53-10.42,33.53-28.84s-15.27-27.71-33.53-27.71h0ZM271.22,288.8h-2.26v-52.84h2.26c11.8,0,22.87,5.74,22.87,25.85s-11.07,26.99-22.87,26.99Z"/><path class="cls-94" d="M319.94,288.8v-43.06c0-5.9.24-8.4.57-11.63h-10.18c.32,3.23.57,5.74.57,11.63v33.29c0,5.9-.24,8.4-.57,11.63h24.8l2.18-6.63c-3.39,1.7-8.16,4.2-15.92,4.69l-1.45.08h0Z"/><path class="cls-91" d="M342.56,245.73v33.29c0,5.66-.24,8.32-.57,11.63h24.97v-4.77c-3.8,1.78-7.68,2.91-12.93,2.91h-2.43v-32.48c6.63,0,9.62.24,13.41,1.05v-3.96c-3.8.81-6.79,1.05-13.41,1.05v-18.5h1.86c5.01,0,9.29.73,13.49,2.91v-4.77h-24.97c.41,3.07.57,5.82.57,11.63h.01Z"/><path class="cls-110" d="M378.12,244.12c0-4.12,2.83-7.27,7.03-7.27,2.67,0,4.85.97,6.22,2.83l-1.86-5.74c-9.94,0-17.53,6.71-17.53,15.75,0,6.55,4.12,11.23,7.59,15.84s6.87,8.65,6.87,13.65-3.47,8.4-8.16,8.4c-2.34,0-5.01-.81-6.87-3.15l1.45,6.22c12.36,0,19.88-7.76,19.88-17.29,0-6.14-3.64-11.39-7.92-17.13-3.07-4.12-6.71-7.51-6.71-12.12h0Z"/><path class="cls-109" d="M409.79,256.24c-3.07-4.12-6.71-7.51-6.71-12.12,0-4.12,2.83-7.27,7.03-7.27,2.67,0,4.85.97,6.22,2.83l-1.86-5.74c-9.94,0-17.53,6.71-17.53,15.75,0,6.55,4.12,11.23,7.59,15.84,3.47,4.61,6.87,8.65,6.87,13.65s-3.47,8.4-8.16,8.4c-2.34,0-5.01-.81-6.87-3.15l1.45,6.22c12.36,0,19.87-7.76,19.87-17.29,0-6.14-3.63-11.39-7.92-17.13h.02Z"/><path class="cls-69" d="M75.68,216.56h10.8c8.71,0,16.23-5.04,16.23-13.55,0-6.68-4.32-10.87-10.74-11.98,4.91-1.31,8.71-5.11,8.71-9.82,0-6.74-5.83-10.47-15.84-10.47h-9.16c.26,2.62.46,4.65.46,9.43v26.97c0,4.78-.2,6.81-.46,9.43h0ZM83.47,172.24c6.94,0,9.56,3.34,9.56,8.97s-2.36,8.77-7.14,9.69v.98c6.48.92,9.23,4.91,9.23,11.46,0,7.72-3.6,11.72-10.15,11.72h-1.51v-42.81h.01Z"/><path class="cls-108" d="M108.28,216.56h20.09l1.77-5.37c-2.75,1.38-6.61,3.4-12.89,3.8l-1.18.06v-34.89c0-4.78.2-6.81.46-9.43h-8.25c.26,2.62.46,4.65.46,9.43v26.97c0,4.78-.2,6.81-.46,9.43h0Z"/><path class="cls-107" d="M137.74,206.8l3.47-9.23h12.31l3.73,9.75c1.51,4.06,2.23,6.74,1.24,9.23h10.67c-1.18-2.36-1.96-4.84-2.88-7.2l-15.32-39.27h-1.24l-17.8,46.47h5.17c-1.38-2.55-.98-5.37.65-9.75h0ZM147.3,181.21l5.63,14.66h-11.13l5.5-14.66Z"/><path class="cls-106" d="M206.66,214.33l1.31-7.27c-3.86,5.76-8.51,8.71-14.53,8.71-8.71,0-17.74-6.48-17.74-22.26s9.03-21.99,17.28-21.99c5.3,0,11.13,2.49,14.2,8.9l-.92-7.79c-3.8-1.96-8.58-2.95-13.29-2.95-13.03,0-25.2,9.03-25.2,23.83s12.18,24.09,25.2,24.09c4.91,0,9.88-1.18,13.68-3.27h.01Z"/><path class="cls-104" d="M213.15,216.56h8.25c-.26-2.62-.46-4.65-.46-9.43v-15.45c4.26.59,5.89,5.56,11.85,24.87h8.64v-.2c-3.08-2.36-8.57-29.72-16.23-29.46l7.79-9.75c2.16-2.62,4.52-5.04,6.41-6.41h-5.89c-.33,1.44-1.24,3.4-2.42,5.17l-10.15,14.99v-10.74c0-4.78.2-6.81.46-9.43h-8.25c.26,2.62.46,4.65.46,9.43v26.97c0,4.78-.2,6.81-.46,9.43h0Z"/><path class="cls-105" d="M248.82,210.73c-1.51.52-2.81,1.77-3.34,3.21.52,1.44,1.83,2.75,3.34,3.27,1.44-.52,2.75-1.83,3.27-3.27-.52-1.51-1.83-2.68-3.27-3.21Z"/><path class="cls-101" d="M275.07,216.56h10.8c8.71,0,16.23-5.04,16.23-13.55,0-6.68-4.32-10.87-10.74-11.98,4.91-1.31,8.71-5.11,8.71-9.82,0-6.74-5.83-10.47-15.84-10.47h-9.16c.26,2.62.46,4.65.46,9.43v26.97c0,4.78-.2,6.81-.46,9.43h0ZM282.86,172.24c6.94,0,9.56,3.34,9.56,8.97s-2.36,8.77-7.13,9.69v.98c6.48.92,9.23,4.91,9.23,11.46,0,7.72-3.6,11.72-10.14,11.72h-1.51v-42.81h0Z"/><path class="cls-102" d="M329.4,217.6c13.09,0,23.83-9.69,23.83-24.09s-10.74-23.83-23.83-23.83-23.7,9.49-23.7,23.83,10.67,24.09,23.7,24.09ZM329.47,171.65c8.31,0,15.91,5.43,15.91,21.86s-7.59,22.12-15.91,22.12-15.91-5.69-15.91-22.12,7.59-21.86,15.91-21.86Z"/><path class="cls-103" d="M358.66,216.56h20.09l1.77-5.37c-2.75,1.38-6.61,3.4-12.89,3.8l-1.18.06v-34.89c0-4.78.2-6.81.46-9.43h-8.25c.26,2.62.46,4.65.46,9.43v26.97c0,4.78-.2,6.81-.46,9.43h0Z"/><path class="cls-122" d="M420.39,193.19c0-14.92-12.37-22.45-27.16-22.45h-8.9c.26,2.62.46,4.65.46,9.36v27.1c0,4.71-.2,6.74-.46,9.36h8.9c14.86,0,27.16-8.44,27.16-23.37h0ZM393.94,215.05h-1.83v-42.81h1.83c9.56,0,18.52,4.65,18.52,20.95s-8.97,21.86-18.52,21.86Z"/><path class="cls-127" d="M417.71,213.94c.52,1.44,1.83,2.75,3.34,3.27,1.44-.52,2.75-1.83,3.27-3.27-.52-1.51-1.83-2.68-3.27-3.21-1.51.52-2.81,1.77-3.34,3.21Z"/><path class="cls-126" d="M421.04,283.76c-1.51.52-2.81,1.77-3.34,3.21.52,1.44,1.83,2.75,3.34,3.27,1.44-.52,2.75-1.83,3.27-3.27-.52-1.51-1.83-2.68-3.27-3.21Z"/><path class="cls-124" d="M95.8,259.15c6.06-1.62,10.75-6.3,10.75-12.12,0-8.32-7.19-12.93-19.55-12.93h-11.31c.32,3.23.57,5.74.57,11.63v33.29c0,5.9-.24,8.4-.57,11.63h13.33c10.75,0,20.04-6.22,20.04-16.72,0-8.24-5.33-13.41-13.25-14.79h-.01ZM87.16,288.8h-1.86v-52.84c8.56,0,11.8,4.12,11.8,11.07s-2.91,10.83-8.81,11.96v1.21c8,1.13,11.39,6.06,11.39,14.14,0,9.53-4.44,14.46-12.52,14.46Z"/><path class="cls-123" d="M142.75,232.81c-16.08,0-29.25,11.71-29.25,29.41s13.17,29.73,29.25,29.73,29.41-11.96,29.41-29.73-13.25-29.41-29.41-29.41h0ZM142.83,289.53c-10.26,0-19.63-7.03-19.63-27.31s9.37-26.99,19.63-26.99,19.63,6.71,19.63,26.99-9.37,27.31-19.63,27.31Z"/><path class="cls-121" d="M206.09,245.73v32.32c0,6.38-2.91,10.1-8.48,10.1-6.22,0-9.21-3.72-9.21-10.1v-32.32c0-3.23.08-8.48.89-11.63h-10.83c.65,3.55.89,6.22.89,11.63v31.75c0,10.02,6.06,14.46,15.19,14.46,8.24,0,13.98-4.44,13.98-14.46v-31.75c0-4.36.32-9.29.73-11.63h-4.44c.97,3.23,1.29,7.76,1.29,11.63h0Z"/><path class="cls-119" d="M249.32,234.1h-5.17c1.62,2.99,1.94,6.06,1.94,13.41v22.3c-1.37-2.5-2.83-4.2-4.28-5.98l-14.38-18.75c-3.31-3.72-5.17-6.46-5.57-11.23l-4.61.24c1.37,3.07,1.78,5.98,1.78,11.96v32.96c0,5.66-.41,8.08-1.45,11.63h5.65c-1.7-3.39-1.86-5.9-1.86-11.55v-28.85c1.29,3.39,3.15,5.49,6.79,9.53l12.2,16.08c4.12,5.25,5.49,7.19,5.49,10.58,0,1.29-.24,2.67-.73,4.2h4.2c-.73-3.47-.81-5.9-.81-11.63v-33.29c0-5.66.24-8.08.81-11.63v.02Z"/><path class="cls-120" d="M270.33,234.1h-10.99c.32,3.23.57,5.74.57,11.55v33.45c0,5.82-.24,8.32-.57,11.55h10.99c18.34,0,33.53-10.42,33.53-28.84s-15.27-27.71-33.53-27.71h0ZM271.22,288.8h-2.26v-52.84h2.26c11.8,0,22.87,5.74,22.87,25.85s-11.07,26.99-22.87,26.99Z"/><path class="cls-125" d="M319.94,288.8v-43.06c0-5.9.24-8.4.57-11.63h-10.18c.32,3.23.57,5.74.57,11.63v33.29c0,5.9-.24,8.4-.57,11.63h24.8l2.18-6.63c-3.39,1.7-8.16,4.2-15.92,4.69l-1.45.08h0Z"/><path class="cls-137" d="M342.56,245.73v33.29c0,5.66-.24,8.32-.57,11.63h24.97v-4.77c-3.8,1.78-7.68,2.91-12.93,2.91h-2.43v-32.48c6.63,0,9.62.24,13.41,1.05v-3.96c-3.8.81-6.79,1.05-13.41,1.05v-18.5h1.86c5.01,0,9.29.73,13.49,2.91v-4.77h-24.97c.41,3.07.57,5.82.57,11.63h.01Z"/><path class="cls-118" d="M378.12,244.12c0-4.12,2.83-7.27,7.03-7.27,2.67,0,4.85.97,6.22,2.83l-1.86-5.74c-9.94,0-17.53,6.71-17.53,15.75,0,6.55,4.12,11.23,7.59,15.84s6.87,8.65,6.87,13.65-3.47,8.4-8.16,8.4c-2.34,0-5.01-.81-6.87-3.15l1.45,6.22c12.36,0,19.88-7.76,19.88-17.29,0-6.14-3.64-11.39-7.92-17.13-3.07-4.12-6.71-7.51-6.71-12.12h0Z"/><path class="cls-117" d="M409.79,256.24c-3.07-4.12-6.71-7.51-6.71-12.12,0-4.12,2.83-7.27,7.03-7.27,2.67,0,4.85.97,6.22,2.83l-1.86-5.74c-9.94,0-17.53,6.71-17.53,15.75,0,6.55,4.12,11.23,7.59,15.84,3.47,4.61,6.87,8.65,6.87,13.65s-3.47,8.4-8.16,8.4c-2.34,0-5.01-.81-6.87-3.15l1.45,6.22c12.36,0,19.87-7.76,19.87-17.29,0-6.14-3.63-11.39-7.92-17.13h.02Z"/><path class="cls-115" d="M112.49,327.24c4.39-2.7,9.46-7.47,9.46-12.08,0-3.22-2.05-5.16-5.4-5.16s-5.46,2.1-5.46,4.77c0,.95.24,1.97.79,3l.41-.22c-.57-.95-.74-2.05-.74-2.81,0-2.54,2.05-4.03,3.98-4.03,2.38,0,3.55,1.94,3.55,4.36,0,4.72-3.16,9.68-9.55,13.96v.22h12.57l.68-1.94h-10.29c0-.06-.03-.08-.03-.08h0Z"/><polygon class="cls-113" points="143.82 310.24 142.48 310.24 138.03 318.13 133.35 310.24 130.15 310.24 136.13 320.25 129.94 329.25 131.32 329.25 136.37 320.67 141.5 329.25 144.69 329.25 138.26 318.48 143.82 310.24"/><path class="cls-111" d="M176.08,323.47c0,2.51-1.28,5.48-5.23,5.48-3.28,0-5.92-2.72-5.92-9.28s2.75-9.19,5.81-9.19c2.51,0,4.8,1.44,4.8,6.17h2.72c.03-.19.03-.49.03-.74,0-2.54-1.94-5.86-7.58-5.86-5.02,0-8.92,3.55-8.92,10.06,0,5.92,3.11,9.33,8.95,9.33,2.4,0,4.6-1.23,5.62-3.55l2.18,3.6h.3v-8.54h-2.75v2.53Z"/><path class="cls-112" d="M190.99,310.24l1.72,4.12-6.74,14.89h1.34l1.82-4.72h7.88l1.99,4.72h3.02l-8.15-19.01h-2.89,0ZM189.3,324.07l3.63-9.25,3.9,9.25h-7.53,0Z"/><polygon class="cls-116" points="212.04 310.24 209.17 310.24 209.17 329.25 219.45 329.25 219.92 328.08 212.04 328.79 212.04 310.24"/><path class="cls-136" d="M232.07,310.24l1.72,4.12-6.74,14.89h1.34l1.83-4.72h7.88l1.99,4.72h3.02l-8.15-19.01h-2.89ZM230.38,324.07l3.63-9.25,3.9,9.25h-7.52Z"/><rect class="cls-135" x="259.4" y="310.24" width="2.89" height="19.01"/><polygon class="cls-114" points="284.53 326.01 270.33 309.57 270.16 309.57 269.43 329.25 270.54 329.25 270.44 313.6 284.7 330.26 284.83 330.26 285.49 310.24 284.35 310.24 284.53 326.01"/><polygon class="cls-134" points="324.24 309.57 316.84 326.99 308.36 309.57 308.22 309.57 304.6 329.25 305.8 329.25 307.79 314.26 315.53 330.32 315.7 330.32 322.63 315.15 325.02 329.25 327.8 329.25 324.37 309.57 324.24 309.57"/><path class="cls-133" d="M339.96,310.24l1.72,4.12-6.74,14.89h1.34l1.82-4.72h7.88l1.99,4.72h3.02l-8.15-19.01h-2.89,0ZM338.26,324.07l3.63-9.25,3.9,9.25h-7.53,0Z"/><polygon class="cls-132" points="373.25 326.01 359.04 309.57 358.87 309.57 358.14 329.25 359.26 329.25 359.15 313.6 373.42 330.26 373.55 330.26 374.2 310.24 373.06 310.24 373.25 326.01"/><rect class="cls-128" x="381.35" y="310.24" width="2.89" height="19.01"/><polygon class="cls-131" points="394.23 310.24 391.37 310.24 391.37 329.25 401.65 329.25 402.11 328.08 394.23 328.79 394.23 310.24"/><path class="cls-130" d="M416.16,310.24h-2.89l1.72,4.12-6.74,14.89h1.34l1.83-4.72h7.88l1.99,4.72h3.02l-8.15-19.01h0ZM411.58,324.07l3.63-9.25,3.9,9.25h-7.52,0Z"/><path class="cls-129" d="M80.7,310.24l1.72,4.12-6.74,14.89h1.34l1.83-4.72h7.88l1.99,4.72h3.02l-8.15-19.01s-2.89,0-2.89,0ZM79.01,324.07l3.63-9.25,3.9,9.25s-7.52,0-7.52,0Z"/></svg>